<svg xmlns="http://www.w3.org/2000/svg" version="1.1" xmlns:xlink="http://www.w3.org/1999/xlink" xmlns:svgjs="http://svgjs.dev/svgjs" width="1440" height="560" preserveAspectRatio="none" viewBox="0 0 1440 560"><g mask="url(&quot;#SvgjsMask1070&quot;)" fill="none"><rect width="1440" height="560" x="0" y="0" fill="#0e2a47"></rect><path d="M-82.53 363.2L-82.53 363.2" stroke="#132e65" stroke-width="1.5"></path><path d="M-82.53 363.2L90.38 339.95" stroke="#132e65" stroke-width="1.5"></path><path d="M-82.53 363.2L52.52 561.3" stroke="#132e65" stroke-width="1.5"></path><path d="M-82.53 363.2L66.27 663.64" stroke="#132e65" stroke-width="1.5"></path><path d="M-82.53 363.2L197.58 561.22" stroke="#132e65" stroke-width="1.5"></path><path d="M-82.53 363.2L260.76 388.23" stroke="#132e65" stroke-width="1.5"></path><path d="M-82.53 363.2L361.58 345.47" stroke="#132e65" stroke-width="1.5"></path><path d="M90.38 339.95L90.38 339.95" stroke="#132e65" stroke-width="1.5"></path><path d="M90.38 339.95L260.76 388.23" stroke="#132e65" stroke-width="1.5"></path><path d="M90.38 339.95L52.52 561.3" stroke="#132e65" stroke-width="1.5"></path><path d="M52.52 561.3L52.52 561.3" stroke="#132e65" stroke-width="1.5"></path><path d="M52.52 561.3L66.27 663.64" stroke="#132e65" stroke-width="1.5"></path><path d="M52.52 561.3L197.58 561.22" stroke="#132e65" stroke-width="1.5"></path><path d="M52.52 561.3L239.39 693.5" stroke="#132e65" stroke-width="1.5"></path><path d="M66.27 663.64L66.27 663.64" stroke="#132e65" stroke-width="1.5"></path><path d="M66.27 663.64L197.58 561.22" stroke="#132e65" stroke-width="1.5"></path><path d="M260.76 388.23L260.76 388.23" stroke="#132e65" stroke-width="1.5"></path><path d="M260.76 388.23L361.58 345.47" stroke="#132e65" stroke-width="1.5"></path><path d="M260.76 388.23L372.57 510.78" stroke="#132e65" stroke-width="1.5"></path><path d="M260.76 388.23L197.58 561.22" stroke="#132e65" stroke-width="1.5"></path><path d="M260.76 388.23L513.78 398.26" stroke="#132e65" stroke-width="1.5"></path><path d="M197.58 561.22L197.58 561.22" stroke="#132e65" stroke-width="1.5"></path><path d="M197.58 561.22L239.39 693.5" stroke="#132e65" stroke-width="1.5"></path><path d="M197.58 561.22L338.61 649.1" stroke="#132e65" stroke-width="1.5"></path><path d="M197.58 561.22L372.57 510.78" stroke="#132e65" stroke-width="1.5"></path><path d="M239.39 693.5L239.39 693.5" stroke="#132e65" stroke-width="1.5"></path><path d="M239.39 693.5L338.61 649.1" stroke="#132e65" stroke-width="1.5"></path><path d="M239.39 693.5L66.27 663.64" stroke="#132e65" stroke-width="1.5"></path><path d="M239.39 693.5L372.57 510.78" stroke="#132e65" stroke-width="1.5"></path><path d="M239.39 693.5L514.37 653.99" stroke="#132e65" stroke-width="1.5"></path><path d="M361.58 345.47L361.58 345.47" stroke="#132e65" stroke-width="1.5"></path><path d="M361.58 345.47L513.78 398.26" stroke="#132e65" stroke-width="1.5"></path><path d="M372.57 510.78L372.57 510.78" stroke="#132e65" stroke-width="1.5"></path><path d="M372.57 510.78L338.61 649.1" stroke="#132e65" stroke-width="1.5"></path><path d="M372.57 510.78L531.74 529.34" stroke="#132e65" stroke-width="1.5"></path><path d="M338.61 649.1L338.61 649.1" stroke="#132e65" stroke-width="1.5"></path><path d="M338.61 649.1L514.37 653.99" stroke="#132e65" stroke-width="1.5"></path><path d="M338.61 649.1L531.74 529.34" stroke="#132e65" stroke-width="1.5"></path><path d="M338.61 649.1L260.76 388.23" stroke="#132e65" stroke-width="1.5"></path><path d="M513.78 398.26L513.78 398.26" stroke="#132e65" stroke-width="1.5"></path><path d="M513.78 398.26L531.74 529.34" stroke="#132e65" stroke-width="1.5"></path><path d="M513.78 398.26L372.57 510.78" stroke="#132e65" stroke-width="1.5"></path><path d="M513.78 398.26L704.23 355.11" stroke="#132e65" stroke-width="1.5"></path><path d="M513.78 398.26L687.57 223.07" stroke="#132e65" stroke-width="1.5"></path><path d="M531.74 529.34L531.74 529.34" stroke="#132e65" stroke-width="1.5"></path><path d="M531.74 529.34L514.37 653.99" stroke="#132e65" stroke-width="1.5"></path><path d="M531.74 529.34L704.23 355.11" stroke="#132e65" stroke-width="1.5"></path><path d="M531.74 529.34L361.58 345.47" stroke="#132e65" stroke-width="1.5"></path><path d="M514.37 653.99L514.37 653.99" stroke="#132e65" stroke-width="1.5"></path><path d="M687.57 223.07L687.57 223.07" stroke="#132e65" stroke-width="1.5"></path><path d="M687.57 223.07L704.23 355.11" stroke="#132e65" stroke-width="1.5"></path><path d="M687.57 223.07L835.5 253.72" stroke="#132e65" stroke-width="1.5"></path><path d="M687.57 223.07L833.5 338.97" stroke="#132e65" stroke-width="1.5"></path><path d="M687.57 223.07L957.8 246.13" stroke="#132e65" stroke-width="1.5"></path><path d="M687.57 223.07L958.98 54.92" stroke="#132e65" stroke-width="1.5"></path><path d="M704.23 355.11L704.23 355.11" stroke="#132e65" stroke-width="1.5"></path><path d="M704.23 355.11L833.5 338.97" stroke="#132e65" stroke-width="1.5"></path><path d="M704.23 355.11L835.5 253.72" stroke="#132e65" stroke-width="1.5"></path><path d="M835.5 253.72L835.5 253.72" stroke="#132e65" stroke-width="1.5"></path><path d="M835.5 253.72L833.5 338.97" stroke="#132e65" stroke-width="1.5"></path><path d="M835.5 253.72L957.8 246.13" stroke="#132e65" stroke-width="1.5"></path><path d="M833.5 338.97L833.5 338.97" stroke="#132e65" stroke-width="1.5"></path><path d="M833.5 338.97L960.99 391" stroke="#132e65" stroke-width="1.5"></path><path d="M833.5 338.97L957.8 246.13" stroke="#132e65" stroke-width="1.5"></path><path d="M858.09 536.65L858.09 536.65" stroke="#132e65" stroke-width="1.5"></path><path d="M858.09 536.65L975.12 500.24" stroke="#132e65" stroke-width="1.5"></path><path d="M858.09 536.65L859.07 662.92" stroke="#132e65" stroke-width="1.5"></path><path d="M858.09 536.65L966.11 662.37" stroke="#132e65" stroke-width="1.5"></path><path d="M858.09 536.65L960.99 391" stroke="#132e65" stroke-width="1.5"></path><path d="M859.07 662.92L859.07 662.92" stroke="#132e65" stroke-width="1.5"></path><path d="M859.07 662.92L966.11 662.37" stroke="#132e65" stroke-width="1.5"></path><path d="M961.57 -82.94L961.57 -82.94" stroke="#132e65" stroke-width="1.5"></path><path d="M961.57 -82.94L958.98 54.92" stroke="#132e65" stroke-width="1.5"></path><path d="M958.98 54.92L958.98 54.92" stroke="#132e65" stroke-width="1.5"></path><path d="M958.98 54.92L1091.42 39.13" stroke="#132e65" stroke-width="1.5"></path><path d="M958.98 54.92L957.8 246.13" stroke="#132e65" stroke-width="1.5"></path><path d="M957.8 246.13L957.8 246.13" stroke="#132e65" stroke-width="1.5"></path><path d="M957.8 246.13L960.99 391" stroke="#132e65" stroke-width="1.5"></path><path d="M957.8 246.13L1134.83 236.94" stroke="#132e65" stroke-width="1.5"></path><path d="M960.99 391L960.99 391" stroke="#132e65" stroke-width="1.5"></path><path d="M960.99 391L975.12 500.24" stroke="#132e65" stroke-width="1.5"></path><path d="M975.12 500.24L975.12 500.24" stroke="#132e65" stroke-width="1.5"></path><path d="M975.12 500.24L1107.96 546.06" stroke="#132e65" stroke-width="1.5"></path><path d="M975.12 500.24L966.11 662.37" stroke="#132e65" stroke-width="1.5"></path><path d="M966.11 662.37L966.11 662.37" stroke="#132e65" stroke-width="1.5"></path><path d="M966.11 662.37L1107.96 546.06" stroke="#132e65" stroke-width="1.5"></path><path d="M966.11 662.37L1154.93 642.93" stroke="#132e65" stroke-width="1.5"></path><path d="M966.11 662.37L960.99 391" stroke="#132e65" stroke-width="1.5"></path><path d="M1118.57 -72.36L1118.57 -72.36" stroke="#132e65" stroke-width="1.5"></path><path d="M1118.57 -72.36L1091.42 39.13" stroke="#132e65" stroke-width="1.5"></path><path d="M1118.57 -72.36L1269.8 -89.11" stroke="#132e65" stroke-width="1.5"></path><path d="M1118.57 -72.36L961.57 -82.94" stroke="#132e65" stroke-width="1.5"></path><path d="M1118.57 -72.36L958.98 54.92" stroke="#132e65" stroke-width="1.5"></path><path d="M1091.42 39.13L1091.42 39.13" stroke="#132e65" stroke-width="1.5"></path><path d="M1091.42 39.13L961.57 -82.94" stroke="#132e65" stroke-width="1.5"></path><path d="M1091.42 39.13L1271.38 91.02" stroke="#132e65" stroke-width="1.5"></path><path d="M1091.42 39.13L1134.83 236.94" stroke="#132e65" stroke-width="1.5"></path><path d="M1091.42 39.13L1269.8 -89.11" stroke="#132e65" stroke-width="1.5"></path><path d="M1134.83 236.94L1134.83 236.94" stroke="#132e65" stroke-width="1.5"></path><path d="M1134.83 236.94L1139.15 386.19" stroke="#132e65" stroke-width="1.5"></path><path d="M1139.15 386.19L1139.15 386.19" stroke="#132e65" stroke-width="1.5"></path><path d="M1139.15 386.19L1272 392.2" stroke="#132e65" stroke-width="1.5"></path><path d="M1139.15 386.19L1107.96 546.06" stroke="#132e65" stroke-width="1.5"></path><path d="M1107.96 546.06L1107.96 546.06" stroke="#132e65" stroke-width="1.5"></path><path d="M1107.96 546.06L1154.93 642.93" stroke="#132e65" stroke-width="1.5"></path><path d="M1107.96 546.06L1250.72 538.34" stroke="#132e65" stroke-width="1.5"></path><path d="M1154.93 642.93L1154.93 642.93" stroke="#132e65" stroke-width="1.5"></path><path d="M1154.93 642.93L1247.21 648.04" stroke="#132e65" stroke-width="1.5"></path><path d="M1269.8 -89.11L1269.8 -89.11" stroke="#132e65" stroke-width="1.5"></path><path d="M1269.8 -89.11L1440.14 -69.59" stroke="#132e65" stroke-width="1.5"></path><path d="M1269.8 -89.11L1271.38 91.02" stroke="#132e65" stroke-width="1.5"></path><path d="M1269.8 -89.11L1448.58 70.99" stroke="#132e65" stroke-width="1.5"></path><path d="M1271.38 91.02L1271.38 91.02" stroke="#132e65" stroke-width="1.5"></path><path d="M1271.38 91.02L1285.16 203.88" stroke="#132e65" stroke-width="1.5"></path><path d="M1271.38 91.02L1448.58 70.99" stroke="#132e65" stroke-width="1.5"></path><path d="M1285.16 203.88L1285.16 203.88" stroke="#132e65" stroke-width="1.5"></path><path d="M1285.16 203.88L1423.68 198.74" stroke="#132e65" stroke-width="1.5"></path><path d="M1285.16 203.88L1134.83 236.94" stroke="#132e65" stroke-width="1.5"></path><path d="M1285.16 203.88L1387.84 350.33" stroke="#132e65" stroke-width="1.5"></path><path d="M1285.16 203.88L1272 392.2" stroke="#132e65" stroke-width="1.5"></path><path d="M1285.16 203.88L1448.58 70.99" stroke="#132e65" stroke-width="1.5"></path><path d="M1272 392.2L1272 392.2" stroke="#132e65" stroke-width="1.5"></path><path d="M1272 392.2L1387.84 350.33" stroke="#132e65" stroke-width="1.5"></path><path d="M1272 392.2L1250.72 538.34" stroke="#132e65" stroke-width="1.5"></path><path d="M1250.72 538.34L1250.72 538.34" stroke="#132e65" stroke-width="1.5"></path><path d="M1250.72 538.34L1247.21 648.04" stroke="#132e65" stroke-width="1.5"></path><path d="M1250.72 538.34L1154.93 642.93" stroke="#132e65" stroke-width="1.5"></path><path d="M1250.72 538.34L1438.2 535.19" stroke="#132e65" stroke-width="1.5"></path><path d="M1247.21 648.04L1247.21 648.04" stroke="#132e65" stroke-width="1.5"></path><path d="M1247.21 648.04L1107.96 546.06" stroke="#132e65" stroke-width="1.5"></path><path d="M1440.14 -69.59L1440.14 -69.59" stroke="#132e65" stroke-width="1.5"></path><path d="M1440.14 -69.59L1448.58 70.99" stroke="#132e65" stroke-width="1.5"></path><path d="M1440.14 -69.59L1588.34 -92.95" stroke="#132e65" stroke-width="1.5"></path><path d="M1440.14 -69.59L1583.79 81.6" stroke="#132e65" stroke-width="1.5"></path><path d="M1448.58 70.99L1448.58 70.99" stroke="#132e65" stroke-width="1.5"></path><path d="M1448.58 70.99L1423.68 198.74" stroke="#132e65" stroke-width="1.5"></path><path d="M1448.58 70.99L1583.79 81.6" stroke="#132e65" stroke-width="1.5"></path><path d="M1423.68 198.74L1423.68 198.74" stroke="#132e65" stroke-width="1.5"></path><path d="M1423.68 198.74L1387.84 350.33" stroke="#132e65" stroke-width="1.5"></path><path d="M1387.84 350.33L1387.84 350.33" stroke="#132e65" stroke-width="1.5"></path><path d="M1387.84 350.33L1438.2 535.19" stroke="#132e65" stroke-width="1.5"></path><path d="M1387.84 350.33L1604.91 382.48" stroke="#132e65" stroke-width="1.5"></path><path d="M1387.84 350.33L1250.72 538.34" stroke="#132e65" stroke-width="1.5"></path><path d="M1438.2 535.19L1438.2 535.19" stroke="#132e65" stroke-width="1.5"></path><path d="M1438.2 535.19L1585.44 542.31" stroke="#132e65" stroke-width="1.5"></path><path d="M1438.2 535.19L1433.02 696.06" stroke="#132e65" stroke-width="1.5"></path><path d="M1433.02 696.06L1433.02 696.06" stroke="#132e65" stroke-width="1.5"></path><path d="M1433.02 696.06L1540.26 688.25" stroke="#132e65" stroke-width="1.5"></path><path d="M1433.02 696.06L1247.21 648.04" stroke="#132e65" stroke-width="1.5"></path><path d="M1433.02 696.06L1585.44 542.31" stroke="#132e65" stroke-width="1.5"></path><path d="M1433.02 696.06L1250.72 538.34" stroke="#132e65" stroke-width="1.5"></path><path d="M1433.02 696.06L1154.93 642.93" stroke="#132e65" stroke-width="1.5"></path><path d="M1588.34 -92.95L1588.34 -92.95" stroke="#132e65" stroke-width="1.5"></path><path d="M1588.34 -92.95L1583.79 81.6" stroke="#132e65" stroke-width="1.5"></path><path d="M1588.34 -92.95L1448.58 70.99" stroke="#132e65" stroke-width="1.5"></path><path d="M1583.79 81.6L1583.79 81.6" stroke="#132e65" stroke-width="1.5"></path><path d="M1583.79 81.6L1423.68 198.74" stroke="#132e65" stroke-width="1.5"></path><path d="M1583.79 81.6L1604.91 382.48" stroke="#132e65" stroke-width="1.5"></path><path d="M1583.79 81.6L1271.38 91.02" stroke="#132e65" stroke-width="1.5"></path><path d="M1604.91 382.48L1604.91 382.48" stroke="#132e65" stroke-width="1.5"></path><path d="M1604.91 382.48L1585.44 542.31" stroke="#132e65" stroke-width="1.5"></path><path d="M1604.91 382.48L1438.2 535.19" stroke="#132e65" stroke-width="1.5"></path><path d="M1585.44 542.31L1585.44 542.31" stroke="#132e65" stroke-width="1.5"></path><path d="M1585.44 542.31L1540.26 688.25" stroke="#132e65" stroke-width="1.5"></path><path d="M1540.26 688.25L1540.26 688.25" stroke="#132e65" stroke-width="1.5"></path><path d="M1540.26 688.25L1438.2 535.19" stroke="#132e65" stroke-width="1.5"></path><path d="M1540.26 688.25L1247.21 648.04" stroke="#132e65" stroke-width="1.5"></path><circle r="5" cx="-82.53" cy="363.2" fill="#132e65"></circle><circle r="5" cx="90.38" cy="339.95" fill="#132e65"></circle><circle r="5" cx="52.52" cy="561.3" fill="#132e65"></circle><circle r="5" cx="66.27" cy="663.64" fill="#132e65"></circle><circle r="5" cx="260.76" cy="388.23" fill="#132e65"></circle><circle r="5" cx="197.58" cy="561.22" fill="#132e65"></circle><circle r="5" cx="239.39" cy="693.5" fill="#132e65"></circle><circle r="5" cx="361.58" cy="345.47" fill="#132e65"></circle><circle r="5" cx="372.57" cy="510.78" fill="#132e65"></circle><circle r="5" cx="338.61" cy="649.1" fill="#132e65"></circle><circle r="5" cx="513.78" cy="398.26" fill="#132e65"></circle><circle r="5" cx="531.74" cy="529.34" fill="#132e65"></circle><circle r="5" cx="514.37" cy="653.99" fill="#132e65"></circle><circle r="5" cx="687.57" cy="223.07" fill="#132e65"></circle><circle r="5" cx="704.23" cy="355.11" fill="#132e65"></circle><circle r="5" cx="835.5" cy="253.72" fill="#132e65"></circle><circle r="5" cx="833.5" cy="338.97" fill="#132e65"></circle><circle r="5" cx="858.09" cy="536.65" fill="#132e65"></circle><circle r="5" cx="859.07" cy="662.92" fill="#132e65"></circle><circle r="5" cx="961.57" cy="-82.94" fill="#132e65"></circle><circle r="5" cx="958.98" cy="54.92" fill="#132e65"></circle><circle r="5" cx="957.8" cy="246.13" fill="#132e65"></circle><circle r="5" cx="960.99" cy="391" fill="#132e65"></circle><circle r="5" cx="975.12" cy="500.24" fill="#132e65"></circle><circle r="5" cx="966.11" cy="662.37" fill="#132e65"></circle><circle r="5" cx="1118.57" cy="-72.36" fill="#132e65"></circle><circle r="5" cx="1091.42" cy="39.13" fill="#132e65"></circle><circle r="5" cx="1134.83" cy="236.94" fill="#132e65"></circle><circle r="5" cx="1139.15" cy="386.19" fill="#132e65"></circle><circle r="5" cx="1107.96" cy="546.06" fill="#132e65"></circle><circle r="5" cx="1154.93" cy="642.93" fill="#132e65"></circle><circle r="5" cx="1269.8" cy="-89.11" fill="#132e65"></circle><circle r="5" cx="1271.38" cy="91.02" fill="#132e65"></circle><circle r="5" cx="1285.16" cy="203.88" fill="#132e65"></circle><circle r="5" cx="1272" cy="392.2" fill="#132e65"></circle><circle r="5" cx="1250.72" cy="538.34" fill="#132e65"></circle><circle r="5" cx="1247.21" cy="648.04" fill="#132e65"></circle><circle r="5" cx="1440.14" cy="-69.59" fill="#132e65"></circle><circle r="5" cx="1448.58" cy="70.99" fill="#132e65"></circle><circle r="5" cx="1423.68" cy="198.74" fill="#132e65"></circle><circle r="5" cx="1387.84" cy="350.33" fill="#132e65"></circle><circle r="5" cx="1438.2" cy="535.19" fill="#132e65"></circle><circle r="5" cx="1433.02" cy="696.06" fill="#132e65"></circle><circle r="5" cx="1588.34" cy="-92.95" fill="#132e65"></circle><circle r="5" cx="1583.79" cy="81.6" fill="#132e65"></circle><circle r="5" cx="1604.91" cy="382.48" fill="#132e65"></circle><circle r="5" cx="1585.44" cy="542.31" fill="#132e65"></circle><circle r="5" cx="1540.26" cy="688.25" fill="#132e65"></circle><path d="M528.83 402.75L528.83 402.75" stroke="hsl(228.5, 77.2%, 51.5%)" stroke-width="1.5"></path><path d="M528.83 402.75L502.58 526.84" stroke="hsl(228.5, 77.2%, 51.5%)" stroke-width="1.5"></path><path d="M528.83 402.75L679.86 410.87" stroke="hsl(228.5, 77.2%, 51.5%)" stroke-width="1.5"></path><path d="M528.83 402.75L490.15 658.83" stroke="hsl(228.5, 77.2%, 51.5%)" stroke-width="1.5"></path><path d="M528.83 402.75L812.7 387.64" stroke="hsl(228.5, 77.2%, 51.5%)" stroke-width="1.5"></path><path d="M649.15 709.65L649.15 709.65" stroke="hsl(228.5, 77.2%, 51.5%)" stroke-width="1.5"></path><path d="M649.15 709.65L795.25 646.95" stroke="hsl(228.5, 77.2%, 51.5%)" stroke-width="1.5"></path><path d="M649.15 709.65L490.15 658.83" stroke="hsl(228.5, 77.2%, 51.5%)" stroke-width="1.5"></path><path d="M649.15 709.65L502.58 526.84" stroke="hsl(228.5, 77.2%, 51.5%)" stroke-width="1.5"></path><path d="M649.15 709.65L822.49 538.45" stroke="hsl(228.5, 77.2%, 51.5%)" stroke-width="1.5"></path><path d="M649.15 709.65L350.41 711.03" stroke="hsl(228.5, 77.2%, 51.5%)" stroke-width="1.5"></path><path d="M649.15 709.65L679.86 410.87" stroke="hsl(228.5, 77.2%, 51.5%)" stroke-width="1.5"></path><path d="M1100.67 513.6L1100.67 513.6" stroke="hsl(228.5, 77.2%, 51.5%)" stroke-width="1.5"></path><path d="M1100.67 513.6L1010.68 550.59" stroke="hsl(228.5, 77.2%, 51.5%)" stroke-width="1.5"></path><path d="M1100.67 513.6L1119.2 395.78" stroke="hsl(228.5, 77.2%, 51.5%)" stroke-width="1.5"></path><path d="M1100.67 513.6L959.49 411.73" stroke="hsl(228.5, 77.2%, 51.5%)" stroke-width="1.5"></path><path d="M1100.67 513.6L1297.94 509.41" stroke="hsl(228.5, 77.2%, 51.5%)" stroke-width="1.5"></path><path d="M1100.67 513.6L982.95 699.78" stroke="hsl(228.5, 77.2%, 51.5%)" stroke-width="1.5"></path><path d="M1286.2 67.7L1286.2 67.7" stroke="hsl(228.5, 77.2%, 51.5%)" stroke-width="1.5"></path><path d="M1286.2 67.7L1273.55 188.41" stroke="hsl(228.5, 77.2%, 51.5%)" stroke-width="1.5"></path><path d="M1286.2 67.7L1296.54 -72.79" stroke="hsl(228.5, 77.2%, 51.5%)" stroke-width="1.5"></path><path d="M1286.2 67.7L1454.02 87.55" stroke="hsl(228.5, 77.2%, 51.5%)" stroke-width="1.5"></path><path d="M1286.2 67.7L1425.84 -63.02" stroke="hsl(228.5, 77.2%, 51.5%)" stroke-width="1.5"></path><path d="M1286.2 67.7L1457.84 197.01" stroke="hsl(228.5, 77.2%, 51.5%)" stroke-width="1.5"></path><path d="M1286.2 67.7L1089.5 193.26" stroke="hsl(228.5, 77.2%, 51.5%)" stroke-width="1.5"></path><path d="M1273.55 188.41L1273.55 188.41" stroke="hsl(228.5, 77.2%, 51.5%)" stroke-width="1.5"></path><path d="M1273.55 188.41L1302.31 367.14" stroke="hsl(228.5, 77.2%, 51.5%)" stroke-width="1.5"></path><path d="M1273.55 188.41L1089.5 193.26" stroke="hsl(228.5, 77.2%, 51.5%)" stroke-width="1.5"></path><path d="M1273.55 188.41L1457.84 197.01" stroke="hsl(228.5, 77.2%, 51.5%)" stroke-width="1.5"></path><path d="M1302.31 367.14L1302.31 367.14" stroke="hsl(228.5, 77.2%, 51.5%)" stroke-width="1.5"></path><path d="M1302.31 367.14L1405.33 338.03" stroke="hsl(228.5, 77.2%, 51.5%)" stroke-width="1.5"></path><path d="M1302.31 367.14L1297.94 509.41" stroke="hsl(228.5, 77.2%, 51.5%)" stroke-width="1.5"></path><path d="M1263.57 701.16L1263.57 701.16" stroke="hsl(228.5, 77.2%, 51.5%)" stroke-width="1.5"></path><path d="M1263.57 701.16L1419.82 657.49" stroke="hsl(228.5, 77.2%, 51.5%)" stroke-width="1.5"></path><path d="M1263.57 701.16L1297.94 509.41" stroke="hsl(228.5, 77.2%, 51.5%)" stroke-width="1.5"></path><path d="M1263.57 701.16L1100.67 513.6" stroke="hsl(228.5, 77.2%, 51.5%)" stroke-width="1.5"></path><path d="M1263.57 701.16L982.95 699.78" stroke="hsl(228.5, 77.2%, 51.5%)" stroke-width="1.5"></path><path d="M1263.57 701.16L1010.68 550.59" stroke="hsl(228.5, 77.2%, 51.5%)" stroke-width="1.5"></path><path d="M1263.57 701.16L1568.78 676.4" stroke="hsl(228.5, 77.2%, 51.5%)" stroke-width="1.5"></path><path d="M1568.78 676.4L1568.78 676.4" stroke="hsl(228.5, 77.2%, 51.5%)" stroke-width="1.5"></path><path d="M1568.78 676.4L1419.82 657.49" stroke="hsl(228.5, 77.2%, 51.5%)" stroke-width="1.5"></path><path d="M1568.78 676.4L1540.81 502.19" stroke="hsl(228.5, 77.2%, 51.5%)" stroke-width="1.5"></path><path d="M-43.73 545.4L-43.73 545.4" stroke="hsl(228.5, 77.2%, 51.5%)" stroke-width="1.5"></path><path d="M-43.73 545.4L85.61 507.15" stroke="hsl(228.5, 77.2%, 51.5%)" stroke-width="1.5"></path><path d="M-43.73 545.4L-79.23 676.83" stroke="hsl(228.5, 77.2%, 51.5%)" stroke-width="1.5"></path><path d="M-43.73 545.4L197.97 637.76" stroke="hsl(228.5, 77.2%, 51.5%)" stroke-width="1.5"></path><path d="M-79.23 676.83L-79.23 676.83" stroke="hsl(228.5, 77.2%, 51.5%)" stroke-width="1.5"></path><path d="M-79.23 676.83L85.61 507.15" stroke="hsl(228.5, 77.2%, 51.5%)" stroke-width="1.5"></path><path d="M-79.23 676.83L197.97 637.76" stroke="hsl(228.5, 77.2%, 51.5%)" stroke-width="1.5"></path><path d="M-79.23 676.83L239.38 534.61" stroke="hsl(228.5, 77.2%, 51.5%)" stroke-width="1.5"></path><path d="M-79.23 676.83L350.41 711.03" stroke="hsl(228.5, 77.2%, 51.5%)" stroke-width="1.5"></path><path d="M-79.23 676.83L490.15 658.83" stroke="hsl(228.5, 77.2%, 51.5%)" stroke-width="1.5"></path><path d="M85.61 507.15L85.61 507.15" stroke="hsl(228.5, 77.2%, 51.5%)" stroke-width="1.5"></path><path d="M85.61 507.15L239.38 534.61" stroke="hsl(228.5, 77.2%, 51.5%)" stroke-width="1.5"></path><path d="M85.61 507.15L197.97 637.76" stroke="hsl(228.5, 77.2%, 51.5%)" stroke-width="1.5"></path><path d="M239.38 534.61L239.38 534.61" stroke="hsl(228.5, 77.2%, 51.5%)" stroke-width="1.5"></path><path d="M239.38 534.61L197.97 637.76" stroke="hsl(228.5, 77.2%, 51.5%)" stroke-width="1.5"></path><path d="M239.38 534.61L350.41 711.03" stroke="hsl(228.5, 77.2%, 51.5%)" stroke-width="1.5"></path><path d="M239.38 534.61L502.58 526.84" stroke="hsl(228.5, 77.2%, 51.5%)" stroke-width="1.5"></path><path d="M239.38 534.61L490.15 658.83" stroke="hsl(228.5, 77.2%, 51.5%)" stroke-width="1.5"></path><path d="M197.97 637.76L197.97 637.76" stroke="hsl(228.5, 77.2%, 51.5%)" stroke-width="1.5"></path><path d="M197.97 637.76L350.41 711.03" stroke="hsl(228.5, 77.2%, 51.5%)" stroke-width="1.5"></path><path d="M350.41 711.03L350.41 711.03" stroke="hsl(228.5, 77.2%, 51.5%)" stroke-width="1.5"></path><path d="M350.41 711.03L490.15 658.83" stroke="hsl(228.5, 77.2%, 51.5%)" stroke-width="1.5"></path><path d="M502.58 526.84L502.58 526.84" stroke="hsl(228.5, 77.2%, 51.5%)" stroke-width="1.5"></path><path d="M502.58 526.84L490.15 658.83" stroke="hsl(228.5, 77.2%, 51.5%)" stroke-width="1.5"></path><path d="M502.58 526.84L679.86 410.87" stroke="hsl(228.5, 77.2%, 51.5%)" stroke-width="1.5"></path><path d="M502.58 526.84L350.41 711.03" stroke="hsl(228.5, 77.2%, 51.5%)" stroke-width="1.5"></path><path d="M490.15 658.83L490.15 658.83" stroke="hsl(228.5, 77.2%, 51.5%)" stroke-width="1.5"></path><path d="M679.86 410.87L679.86 410.87" stroke="hsl(228.5, 77.2%, 51.5%)" stroke-width="1.5"></path><path d="M679.86 410.87L812.7 387.64" stroke="hsl(228.5, 77.2%, 51.5%)" stroke-width="1.5"></path><path d="M812.7 387.64L812.7 387.64" stroke="hsl(228.5, 77.2%, 51.5%)" stroke-width="1.5"></path><path d="M812.7 387.64L959.49 411.73" stroke="hsl(228.5, 77.2%, 51.5%)" stroke-width="1.5"></path><path d="M812.7 387.64L822.49 538.45" stroke="hsl(228.5, 77.2%, 51.5%)" stroke-width="1.5"></path><path d="M812.7 387.64L1010.68 550.59" stroke="hsl(228.5, 77.2%, 51.5%)" stroke-width="1.5"></path><path d="M812.7 387.64L795.25 646.95" stroke="hsl(228.5, 77.2%, 51.5%)" stroke-width="1.5"></path><path d="M822.49 538.45L822.49 538.45" stroke="hsl(228.5, 77.2%, 51.5%)" stroke-width="1.5"></path><path d="M822.49 538.45L795.25 646.95" stroke="hsl(228.5, 77.2%, 51.5%)" stroke-width="1.5"></path><path d="M795.25 646.95L795.25 646.95" stroke="hsl(228.5, 77.2%, 51.5%)" stroke-width="1.5"></path><path d="M795.25 646.95L982.95 699.78" stroke="hsl(228.5, 77.2%, 51.5%)" stroke-width="1.5"></path><path d="M795.25 646.95L1010.68 550.59" stroke="hsl(228.5, 77.2%, 51.5%)" stroke-width="1.5"></path><path d="M795.25 646.95L679.86 410.87" stroke="hsl(228.5, 77.2%, 51.5%)" stroke-width="1.5"></path><path d="M959.49 411.73L959.49 411.73" stroke="hsl(228.5, 77.2%, 51.5%)" stroke-width="1.5"></path><path d="M959.49 411.73L1010.68 550.59" stroke="hsl(228.5, 77.2%, 51.5%)" stroke-width="1.5"></path><path d="M959.49 411.73L1119.2 395.78" stroke="hsl(228.5, 77.2%, 51.5%)" stroke-width="1.5"></path><path d="M959.49 411.73L822.49 538.45" stroke="hsl(228.5, 77.2%, 51.5%)" stroke-width="1.5"></path><path d="M1010.68 550.59L1010.68 550.59" stroke="hsl(228.5, 77.2%, 51.5%)" stroke-width="1.5"></path><path d="M982.95 699.78L982.95 699.78" stroke="hsl(228.5, 77.2%, 51.5%)" stroke-width="1.5"></path><path d="M982.95 699.78L1010.68 550.59" stroke="hsl(228.5, 77.2%, 51.5%)" stroke-width="1.5"></path><path d="M982.95 699.78L822.49 538.45" stroke="hsl(228.5, 77.2%, 51.5%)" stroke-width="1.5"></path><path d="M1089.5 193.26L1089.5 193.26" stroke="hsl(228.5, 77.2%, 51.5%)" stroke-width="1.5"></path><path d="M1089.5 193.26L1119.2 395.78" stroke="hsl(228.5, 77.2%, 51.5%)" stroke-width="1.5"></path><path d="M1089.5 193.26L959.49 411.73" stroke="hsl(228.5, 77.2%, 51.5%)" stroke-width="1.5"></path><path d="M1089.5 193.26L1302.31 367.14" stroke="hsl(228.5, 77.2%, 51.5%)" stroke-width="1.5"></path><path d="M1119.2 395.78L1119.2 395.78" stroke="hsl(228.5, 77.2%, 51.5%)" stroke-width="1.5"></path><path d="M1296.54 -72.79L1296.54 -72.79" stroke="hsl(228.5, 77.2%, 51.5%)" stroke-width="1.5"></path><path d="M1296.54 -72.79L1425.84 -63.02" stroke="hsl(228.5, 77.2%, 51.5%)" stroke-width="1.5"></path><path d="M1297.94 509.41L1297.94 509.41" stroke="hsl(228.5, 77.2%, 51.5%)" stroke-width="1.5"></path><path d="M1297.94 509.41L1419.82 657.49" stroke="hsl(228.5, 77.2%, 51.5%)" stroke-width="1.5"></path><path d="M1297.94 509.41L1405.33 338.03" stroke="hsl(228.5, 77.2%, 51.5%)" stroke-width="1.5"></path><path d="M1425.84 -63.02L1425.84 -63.02" stroke="hsl(228.5, 77.2%, 51.5%)" stroke-width="1.5"></path><path d="M1425.84 -63.02L1454.02 87.55" stroke="hsl(228.5, 77.2%, 51.5%)" stroke-width="1.5"></path><path d="M1454.02 87.55L1454.02 87.55" stroke="hsl(228.5, 77.2%, 51.5%)" stroke-width="1.5"></path><path d="M1454.02 87.55L1543.88 82.7" stroke="hsl(228.5, 77.2%, 51.5%)" stroke-width="1.5"></path><path d="M1454.02 87.55L1457.84 197.01" stroke="hsl(228.5, 77.2%, 51.5%)" stroke-width="1.5"></path><path d="M1454.02 87.55L1604.95 197.12" stroke="hsl(228.5, 77.2%, 51.5%)" stroke-width="1.5"></path><path d="M1454.02 87.55L1273.55 188.41" stroke="hsl(228.5, 77.2%, 51.5%)" stroke-width="1.5"></path><path d="M1457.84 197.01L1457.84 197.01" stroke="hsl(228.5, 77.2%, 51.5%)" stroke-width="1.5"></path><path d="M1457.84 197.01L1543.88 82.7" stroke="hsl(228.5, 77.2%, 51.5%)" stroke-width="1.5"></path><path d="M1405.33 338.03L1405.33 338.03" stroke="hsl(228.5, 77.2%, 51.5%)" stroke-width="1.5"></path><path d="M1405.33 338.03L1457.84 197.01" stroke="hsl(228.5, 77.2%, 51.5%)" stroke-width="1.5"></path><path d="M1405.33 338.03L1556.52 363.59" stroke="hsl(228.5, 77.2%, 51.5%)" stroke-width="1.5"></path><path d="M1405.33 338.03L1273.55 188.41" stroke="hsl(228.5, 77.2%, 51.5%)" stroke-width="1.5"></path><path d="M1419.82 657.49L1419.82 657.49" stroke="hsl(228.5, 77.2%, 51.5%)" stroke-width="1.5"></path><path d="M1419.82 657.49L1540.81 502.19" stroke="hsl(228.5, 77.2%, 51.5%)" stroke-width="1.5"></path><path d="M1419.82 657.49L1302.31 367.14" stroke="hsl(228.5, 77.2%, 51.5%)" stroke-width="1.5"></path><path d="M1419.82 657.49L1405.33 338.03" stroke="hsl(228.5, 77.2%, 51.5%)" stroke-width="1.5"></path><path d="M1605.62 -109.94L1605.62 -109.94" stroke="hsl(228.5, 77.2%, 51.5%)" stroke-width="1.5"></path><path d="M1605.62 -109.94L1425.84 -63.02" stroke="hsl(228.5, 77.2%, 51.5%)" stroke-width="1.5"></path><path d="M1605.62 -109.94L1543.88 82.7" stroke="hsl(228.5, 77.2%, 51.5%)" stroke-width="1.5"></path><path d="M1605.62 -109.94L1454.02 87.55" stroke="hsl(228.5, 77.2%, 51.5%)" stroke-width="1.5"></path><path d="M1605.62 -109.94L1604.95 197.12" stroke="hsl(228.5, 77.2%, 51.5%)" stroke-width="1.5"></path><path d="M1543.88 82.7L1543.88 82.7" stroke="hsl(228.5, 77.2%, 51.5%)" stroke-width="1.5"></path><path d="M1543.88 82.7L1604.95 197.12" stroke="hsl(228.5, 77.2%, 51.5%)" stroke-width="1.5"></path><path d="M1604.95 197.12L1604.95 197.12" stroke="hsl(228.5, 77.2%, 51.5%)" stroke-width="1.5"></path><path d="M1604.95 197.12L1457.84 197.01" stroke="hsl(228.5, 77.2%, 51.5%)" stroke-width="1.5"></path><path d="M1604.95 197.12L1556.52 363.59" stroke="hsl(228.5, 77.2%, 51.5%)" stroke-width="1.5"></path><path d="M1604.95 197.12L1405.33 338.03" stroke="hsl(228.5, 77.2%, 51.5%)" stroke-width="1.5"></path><path d="M1556.52 363.59L1556.52 363.59" stroke="hsl(228.5, 77.2%, 51.5%)" stroke-width="1.5"></path><path d="M1556.52 363.59L1540.81 502.19" stroke="hsl(228.5, 77.2%, 51.5%)" stroke-width="1.5"></path><path d="M1540.81 502.19L1540.81 502.19" stroke="hsl(228.5, 77.2%, 51.5%)" stroke-width="1.5"></path><circle r="25" cx="528.83" cy="402.75" fill="url(&quot;#SvgjsRadialGradient1071&quot;)"></circle><circle r="25" cx="649.15" cy="709.65" fill="url(&quot;#SvgjsRadialGradient1071&quot;)"></circle><circle r="25" cx="1100.67" cy="513.6" fill="url(&quot;#SvgjsRadialGradient1071&quot;)"></circle><circle r="25" cx="1286.2" cy="67.7" fill="url(&quot;#SvgjsRadialGradient1071&quot;)"></circle><circle r="25" cx="1273.55" cy="188.41" fill="url(&quot;#SvgjsRadialGradient1071&quot;)"></circle><circle r="25" cx="1302.31" cy="367.14" fill="url(&quot;#SvgjsRadialGradient1071&quot;)"></circle><circle r="25" cx="1263.57" cy="701.16" fill="url(&quot;#SvgjsRadialGradient1071&quot;)"></circle><circle r="25" cx="1568.78" cy="676.4" fill="url(&quot;#SvgjsRadialGradient1071&quot;)"></circle><circle r="5" cx="-43.73" cy="545.4" fill="#8b9ad9"></circle><circle r="5" cx="-79.23" cy="676.83" fill="#8b9ad9"></circle><circle r="5" cx="85.61" cy="507.15" fill="#8b9ad9"></circle><circle r="5" cx="239.38" cy="534.61" fill="#8b9ad9"></circle><circle r="5" cx="197.97" cy="637.76" fill="#8b9ad9"></circle><circle r="5" cx="350.41" cy="711.03" fill="#8b9ad9"></circle><circle r="5" cx="502.58" cy="526.84" fill="#8b9ad9"></circle><circle r="5" cx="490.15" cy="658.83" fill="#8b9ad9"></circle><circle r="5" cx="679.86" cy="410.87" fill="#8b9ad9"></circle><circle r="5" cx="812.7" cy="387.64" fill="#8b9ad9"></circle><circle r="5" cx="822.49" cy="538.45" fill="#8b9ad9"></circle><circle r="5" cx="795.25" cy="646.95" fill="#8b9ad9"></circle><circle r="5" cx="959.49" cy="411.73" fill="#8b9ad9"></circle><circle r="5" cx="1010.68" cy="550.59" fill="#8b9ad9"></circle><circle r="5" cx="982.95" cy="699.78" fill="#8b9ad9"></circle><circle r="5" cx="1089.5" cy="193.26" fill="#8b9ad9"></circle><circle r="5" cx="1119.2" cy="395.78" fill="#8b9ad9"></circle><circle r="5" cx="1296.54" cy="-72.79" fill="#8b9ad9"></circle><circle r="5" cx="1297.94" cy="509.41" fill="#8b9ad9"></circle><circle r="5" cx="1425.84" cy="-63.02" fill="#8b9ad9"></circle><circle r="5" cx="1454.02" cy="87.55" fill="#8b9ad9"></circle><circle r="5" cx="1457.84" cy="197.01" fill="#8b9ad9"></circle><circle r="5" cx="1405.33" cy="338.03" fill="#8b9ad9"></circle><circle r="5" cx="1419.82" cy="657.49" fill="#8b9ad9"></circle><circle r="5" cx="1605.62" cy="-109.94" fill="#8b9ad9"></circle><circle r="5" cx="1543.88" cy="82.7" fill="#8b9ad9"></circle><circle r="5" cx="1604.95" cy="197.12" fill="#8b9ad9"></circle><circle r="5" cx="1556.52" cy="363.59" fill="#8b9ad9"></circle><circle r="5" cx="1540.81" cy="502.19" fill="#8b9ad9"></circle></g><defs><mask id="SvgjsMask1070"><rect width="1440" height="560" fill="#ffffff"></rect></mask><radialGradient id="SvgjsRadialGradient1071"><stop stop-color="#ffffff" offset="0.1"></stop><stop stop-color="#1735b3" offset="0.2"></stop><stop stop-color="rgba(23, 53, 179, 0)" offset="1"></stop></radialGradient></defs></svg>