<svg xmlns="http://www.w3.org/2000/svg" version="1.1" xmlns:xlink="http://www.w3.org/1999/xlink" xmlns:svgjs="http://svgjs.dev/svgjs" width="1440" height="560" preserveAspectRatio="none" viewBox="0 0 1440 560"><g mask="url(&quot;#SvgjsMask1090&quot;)" fill="none"><rect width="1440" height="560" x="0" y="0" fill="#0e2a47"></rect><path d="M-50.12 371.36L-50.12 371.36" stroke="#132e65" stroke-width="1.5"></path><path d="M-50.12 371.36L88.62 404.74" stroke="#132e65" stroke-width="1.5"></path><path d="M-50.12 371.36L-81.4 561.79" stroke="#132e65" stroke-width="1.5"></path><path d="M-50.12 371.36L81.45 550.23" stroke="#132e65" stroke-width="1.5"></path><path d="M-50.12 371.36L-94.57 651.3" stroke="#132e65" stroke-width="1.5"></path><path d="M-81.4 561.79L-81.4 561.79" stroke="#132e65" stroke-width="1.5"></path><path d="M-81.4 561.79L-94.57 651.3" stroke="#132e65" stroke-width="1.5"></path><path d="M-81.4 561.79L81.45 550.23" stroke="#132e65" stroke-width="1.5"></path><path d="M-94.57 651.3L-94.57 651.3" stroke="#132e65" stroke-width="1.5"></path><path d="M-94.57 651.3L45.34 668.66" stroke="#132e65" stroke-width="1.5"></path><path d="M-94.57 651.3L81.45 550.23" stroke="#132e65" stroke-width="1.5"></path><path d="M-94.57 651.3L88.62 404.74" stroke="#132e65" stroke-width="1.5"></path><path d="M-94.57 651.3L243.59 554.07" stroke="#132e65" stroke-width="1.5"></path><path d="M88.62 404.74L88.62 404.74" stroke="#132e65" stroke-width="1.5"></path><path d="M88.62 404.74L81.45 550.23" stroke="#132e65" stroke-width="1.5"></path><path d="M88.62 404.74L240.43 393.68" stroke="#132e65" stroke-width="1.5"></path><path d="M88.62 404.74L243.59 554.07" stroke="#132e65" stroke-width="1.5"></path><path d="M88.62 404.74L-81.4 561.79" stroke="#132e65" stroke-width="1.5"></path><path d="M81.45 550.23L81.45 550.23" stroke="#132e65" stroke-width="1.5"></path><path d="M81.45 550.23L45.34 668.66" stroke="#132e65" stroke-width="1.5"></path><path d="M81.45 550.23L243.59 554.07" stroke="#132e65" stroke-width="1.5"></path><path d="M45.34 668.66L45.34 668.66" stroke="#132e65" stroke-width="1.5"></path><path d="M45.34 668.66L-81.4 561.79" stroke="#132e65" stroke-width="1.5"></path><path d="M45.34 668.66L243.59 554.07" stroke="#132e65" stroke-width="1.5"></path><path d="M45.34 668.66L88.62 404.74" stroke="#132e65" stroke-width="1.5"></path><path d="M45.34 668.66L-50.12 371.36" stroke="#132e65" stroke-width="1.5"></path><path d="M240.43 393.68L240.43 393.68" stroke="#132e65" stroke-width="1.5"></path><path d="M240.43 393.68L388.08 406.37" stroke="#132e65" stroke-width="1.5"></path><path d="M240.43 393.68L243.59 554.07" stroke="#132e65" stroke-width="1.5"></path><path d="M243.59 554.07L243.59 554.07" stroke="#132e65" stroke-width="1.5"></path><path d="M243.59 554.07L350.61 526.24" stroke="#132e65" stroke-width="1.5"></path><path d="M243.59 554.07L369.21 691.81" stroke="#132e65" stroke-width="1.5"></path><path d="M388.08 406.37L388.08 406.37" stroke="#132e65" stroke-width="1.5"></path><path d="M388.08 406.37L350.61 526.24" stroke="#132e65" stroke-width="1.5"></path><path d="M388.08 406.37L535.46 489.64" stroke="#132e65" stroke-width="1.5"></path><path d="M350.61 526.24L350.61 526.24" stroke="#132e65" stroke-width="1.5"></path><path d="M350.61 526.24L369.21 691.81" stroke="#132e65" stroke-width="1.5"></path><path d="M350.61 526.24L240.43 393.68" stroke="#132e65" stroke-width="1.5"></path><path d="M350.61 526.24L535.46 489.64" stroke="#132e65" stroke-width="1.5"></path><path d="M369.21 691.81L369.21 691.81" stroke="#132e65" stroke-width="1.5"></path><path d="M369.21 691.81L535.46 489.64" stroke="#132e65" stroke-width="1.5"></path><path d="M557.26 380L557.26 380" stroke="#132e65" stroke-width="1.5"></path><path d="M557.26 380L535.46 489.64" stroke="#132e65" stroke-width="1.5"></path><path d="M557.26 380L679.05 396.59" stroke="#132e65" stroke-width="1.5"></path><path d="M557.26 380L388.08 406.37" stroke="#132e65" stroke-width="1.5"></path><path d="M557.26 380L648.75 233.26" stroke="#132e65" stroke-width="1.5"></path><path d="M535.46 489.64L535.46 489.64" stroke="#132e65" stroke-width="1.5"></path><path d="M535.46 489.64L679.05 396.59" stroke="#132e65" stroke-width="1.5"></path><path d="M535.46 489.64L658.94 643.28" stroke="#132e65" stroke-width="1.5"></path><path d="M648.75 233.26L648.75 233.26" stroke="#132e65" stroke-width="1.5"></path><path d="M648.75 233.26L679.05 396.59" stroke="#132e65" stroke-width="1.5"></path><path d="M648.75 233.26L851.57 217.64" stroke="#132e65" stroke-width="1.5"></path><path d="M679.05 396.59L679.05 396.59" stroke="#132e65" stroke-width="1.5"></path><path d="M658.94 643.28L658.94 643.28" stroke="#132e65" stroke-width="1.5"></path><path d="M658.94 643.28L811.95 697.78" stroke="#132e65" stroke-width="1.5"></path><path d="M658.94 643.28L679.05 396.59" stroke="#132e65" stroke-width="1.5"></path><path d="M658.94 643.28L557.26 380" stroke="#132e65" stroke-width="1.5"></path><path d="M658.94 643.28L369.21 691.81" stroke="#132e65" stroke-width="1.5"></path><path d="M658.94 643.28L954.53 663.57" stroke="#132e65" stroke-width="1.5"></path><path d="M851.57 217.64L851.57 217.64" stroke="#132e65" stroke-width="1.5"></path><path d="M851.57 217.64L939.73 225.13" stroke="#132e65" stroke-width="1.5"></path><path d="M851.57 217.64L862.26 386.61" stroke="#132e65" stroke-width="1.5"></path><path d="M851.57 217.64L1007.32 94.1" stroke="#132e65" stroke-width="1.5"></path><path d="M862.26 386.61L862.26 386.61" stroke="#132e65" stroke-width="1.5"></path><path d="M862.26 386.61L974.22 382.02" stroke="#132e65" stroke-width="1.5"></path><path d="M862.26 386.61L939.73 225.13" stroke="#132e65" stroke-width="1.5"></path><path d="M862.26 386.61L1002.02 501.09" stroke="#132e65" stroke-width="1.5"></path><path d="M862.26 386.61L679.05 396.59" stroke="#132e65" stroke-width="1.5"></path><path d="M811.95 697.78L811.95 697.78" stroke="#132e65" stroke-width="1.5"></path><path d="M811.95 697.78L954.53 663.57" stroke="#132e65" stroke-width="1.5"></path><path d="M811.95 697.78L1002.02 501.09" stroke="#132e65" stroke-width="1.5"></path><path d="M811.95 697.78L1111.02 701.21" stroke="#132e65" stroke-width="1.5"></path><path d="M811.95 697.78L862.26 386.61" stroke="#132e65" stroke-width="1.5"></path><path d="M1009.79 -96.88L1009.79 -96.88" stroke="#132e65" stroke-width="1.5"></path><path d="M1009.79 -96.88L1117.82 -68.15" stroke="#132e65" stroke-width="1.5"></path><path d="M1009.79 -96.88L1007.32 94.1" stroke="#132e65" stroke-width="1.5"></path><path d="M1009.79 -96.88L1089.36 80.1" stroke="#132e65" stroke-width="1.5"></path><path d="M1009.79 -96.88L1280.64 -97.12" stroke="#132e65" stroke-width="1.5"></path><path d="M1007.32 94.1L1007.32 94.1" stroke="#132e65" stroke-width="1.5"></path><path d="M1007.32 94.1L1089.36 80.1" stroke="#132e65" stroke-width="1.5"></path><path d="M1007.32 94.1L939.73 225.13" stroke="#132e65" stroke-width="1.5"></path><path d="M1007.32 94.1L1126.53 232.79" stroke="#132e65" stroke-width="1.5"></path><path d="M1007.32 94.1L1117.82 -68.15" stroke="#132e65" stroke-width="1.5"></path><path d="M939.73 225.13L939.73 225.13" stroke="#132e65" stroke-width="1.5"></path><path d="M939.73 225.13L974.22 382.02" stroke="#132e65" stroke-width="1.5"></path><path d="M939.73 225.13L1126.53 232.79" stroke="#132e65" stroke-width="1.5"></path><path d="M974.22 382.02L974.22 382.02" stroke="#132e65" stroke-width="1.5"></path><path d="M974.22 382.02L1002.02 501.09" stroke="#132e65" stroke-width="1.5"></path><path d="M974.22 382.02L1114.7 411.39" stroke="#132e65" stroke-width="1.5"></path><path d="M974.22 382.02L851.57 217.64" stroke="#132e65" stroke-width="1.5"></path><path d="M974.22 382.02L1126.53 232.79" stroke="#132e65" stroke-width="1.5"></path><path d="M1002.02 501.09L1002.02 501.09" stroke="#132e65" stroke-width="1.5"></path><path d="M1002.02 501.09L1107.6 553.72" stroke="#132e65" stroke-width="1.5"></path><path d="M1002.02 501.09L1114.7 411.39" stroke="#132e65" stroke-width="1.5"></path><path d="M1002.02 501.09L954.53 663.57" stroke="#132e65" stroke-width="1.5"></path><path d="M1002.02 501.09L1111.02 701.21" stroke="#132e65" stroke-width="1.5"></path><path d="M954.53 663.57L954.53 663.57" stroke="#132e65" stroke-width="1.5"></path><path d="M954.53 663.57L1111.02 701.21" stroke="#132e65" stroke-width="1.5"></path><path d="M1117.82 -68.15L1117.82 -68.15" stroke="#132e65" stroke-width="1.5"></path><path d="M1117.82 -68.15L1089.36 80.1" stroke="#132e65" stroke-width="1.5"></path><path d="M1117.82 -68.15L1280.64 -97.12" stroke="#132e65" stroke-width="1.5"></path><path d="M1117.82 -68.15L1253.97 66.78" stroke="#132e65" stroke-width="1.5"></path><path d="M1117.82 -68.15L1126.53 232.79" stroke="#132e65" stroke-width="1.5"></path><path d="M1089.36 80.1L1089.36 80.1" stroke="#132e65" stroke-width="1.5"></path><path d="M1089.36 80.1L1126.53 232.79" stroke="#132e65" stroke-width="1.5"></path><path d="M1126.53 232.79L1126.53 232.79" stroke="#132e65" stroke-width="1.5"></path><path d="M1126.53 232.79L1259.04 246.06" stroke="#132e65" stroke-width="1.5"></path><path d="M1114.7 411.39L1114.7 411.39" stroke="#132e65" stroke-width="1.5"></path><path d="M1114.7 411.39L1244.41 394.93" stroke="#132e65" stroke-width="1.5"></path><path d="M1114.7 411.39L1107.6 553.72" stroke="#132e65" stroke-width="1.5"></path><path d="M1107.6 553.72L1107.6 553.72" stroke="#132e65" stroke-width="1.5"></path><path d="M1107.6 553.72L1111.02 701.21" stroke="#132e65" stroke-width="1.5"></path><path d="M1107.6 553.72L954.53 663.57" stroke="#132e65" stroke-width="1.5"></path><path d="M1107.6 553.72L1258.6 694.72" stroke="#132e65" stroke-width="1.5"></path><path d="M1107.6 553.72L1244.41 394.93" stroke="#132e65" stroke-width="1.5"></path><path d="M1111.02 701.21L1111.02 701.21" stroke="#132e65" stroke-width="1.5"></path><path d="M1111.02 701.21L1258.6 694.72" stroke="#132e65" stroke-width="1.5"></path><path d="M1280.64 -97.12L1280.64 -97.12" stroke="#132e65" stroke-width="1.5"></path><path d="M1280.64 -97.12L1441.61 -70.94" stroke="#132e65" stroke-width="1.5"></path><path d="M1280.64 -97.12L1253.97 66.78" stroke="#132e65" stroke-width="1.5"></path><path d="M1253.97 66.78L1253.97 66.78" stroke="#132e65" stroke-width="1.5"></path><path d="M1253.97 66.78L1089.36 80.1" stroke="#132e65" stroke-width="1.5"></path><path d="M1253.97 66.78L1431.09 71.48" stroke="#132e65" stroke-width="1.5"></path><path d="M1259.04 246.06L1259.04 246.06" stroke="#132e65" stroke-width="1.5"></path><path d="M1259.04 246.06L1406.55 233.58" stroke="#132e65" stroke-width="1.5"></path><path d="M1259.04 246.06L1244.41 394.93" stroke="#132e65" stroke-width="1.5"></path><path d="M1259.04 246.06L1253.97 66.78" stroke="#132e65" stroke-width="1.5"></path><path d="M1259.04 246.06L1114.7 411.39" stroke="#132e65" stroke-width="1.5"></path><path d="M1259.04 246.06L1417.02 401.83" stroke="#132e65" stroke-width="1.5"></path><path d="M1244.41 394.93L1244.41 394.93" stroke="#132e65" stroke-width="1.5"></path><path d="M1244.41 394.93L1417.02 401.83" stroke="#132e65" stroke-width="1.5"></path><path d="M1244.41 394.93L1126.53 232.79" stroke="#132e65" stroke-width="1.5"></path><path d="M1258.6 694.72L1258.6 694.72" stroke="#132e65" stroke-width="1.5"></path><path d="M1258.6 694.72L1389.64 642.24" stroke="#132e65" stroke-width="1.5"></path><path d="M1258.6 694.72L1450.94 515.84" stroke="#132e65" stroke-width="1.5"></path><path d="M1258.6 694.72L1244.41 394.93" stroke="#132e65" stroke-width="1.5"></path><path d="M1258.6 694.72L1559.93 683.98" stroke="#132e65" stroke-width="1.5"></path><path d="M1441.61 -70.94L1441.61 -70.94" stroke="#132e65" stroke-width="1.5"></path><path d="M1441.61 -70.94L1577.09 -79.83" stroke="#132e65" stroke-width="1.5"></path><path d="M1441.61 -70.94L1431.09 71.48" stroke="#132e65" stroke-width="1.5"></path><path d="M1431.09 71.48L1431.09 71.48" stroke="#132e65" stroke-width="1.5"></path><path d="M1431.09 71.48L1406.55 233.58" stroke="#132e65" stroke-width="1.5"></path><path d="M1406.55 233.58L1406.55 233.58" stroke="#132e65" stroke-width="1.5"></path><path d="M1406.55 233.58L1417.02 401.83" stroke="#132e65" stroke-width="1.5"></path><path d="M1406.55 233.58L1602.29 207.06" stroke="#132e65" stroke-width="1.5"></path><path d="M1417.02 401.83L1417.02 401.83" stroke="#132e65" stroke-width="1.5"></path><path d="M1417.02 401.83L1450.94 515.84" stroke="#132e65" stroke-width="1.5"></path><path d="M1417.02 401.83L1389.64 642.24" stroke="#132e65" stroke-width="1.5"></path><path d="M1450.94 515.84L1450.94 515.84" stroke="#132e65" stroke-width="1.5"></path><path d="M1450.94 515.84L1389.64 642.24" stroke="#132e65" stroke-width="1.5"></path><path d="M1450.94 515.84L1559.93 683.98" stroke="#132e65" stroke-width="1.5"></path><path d="M1450.94 515.84L1244.41 394.93" stroke="#132e65" stroke-width="1.5"></path><path d="M1450.94 515.84L1406.55 233.58" stroke="#132e65" stroke-width="1.5"></path><path d="M1389.64 642.24L1389.64 642.24" stroke="#132e65" stroke-width="1.5"></path><path d="M1389.64 642.24L1559.93 683.98" stroke="#132e65" stroke-width="1.5"></path><path d="M1577.09 -79.83L1577.09 -79.83" stroke="#132e65" stroke-width="1.5"></path><path d="M1577.09 -79.83L1431.09 71.48" stroke="#132e65" stroke-width="1.5"></path><path d="M1577.09 -79.83L1602.29 207.06" stroke="#132e65" stroke-width="1.5"></path><path d="M1602.29 207.06L1602.29 207.06" stroke="#132e65" stroke-width="1.5"></path><path d="M1602.29 207.06L1431.09 71.48" stroke="#132e65" stroke-width="1.5"></path><path d="M1602.29 207.06L1417.02 401.83" stroke="#132e65" stroke-width="1.5"></path><path d="M1559.93 683.98L1559.93 683.98" stroke="#132e65" stroke-width="1.5"></path><path d="M1559.93 683.98L1417.02 401.83" stroke="#132e65" stroke-width="1.5"></path><circle r="5" cx="-50.12" cy="371.36" fill="#132e65"></circle><circle r="5" cx="-81.4" cy="561.79" fill="#132e65"></circle><circle r="5" cx="-94.57" cy="651.3" fill="#132e65"></circle><circle r="5" cx="88.62" cy="404.74" fill="#132e65"></circle><circle r="5" cx="81.45" cy="550.23" fill="#132e65"></circle><circle r="5" cx="45.34" cy="668.66" fill="#132e65"></circle><circle r="5" cx="240.43" cy="393.68" fill="#132e65"></circle><circle r="5" cx="243.59" cy="554.07" fill="#132e65"></circle><circle r="5" cx="388.08" cy="406.37" fill="#132e65"></circle><circle r="5" cx="350.61" cy="526.24" fill="#132e65"></circle><circle r="5" cx="369.21" cy="691.81" fill="#132e65"></circle><circle r="5" cx="557.26" cy="380" fill="#132e65"></circle><circle r="5" cx="535.46" cy="489.64" fill="#132e65"></circle><circle r="5" cx="648.75" cy="233.26" fill="#132e65"></circle><circle r="5" cx="679.05" cy="396.59" fill="#132e65"></circle><circle r="5" cx="658.94" cy="643.28" fill="#132e65"></circle><circle r="5" cx="851.57" cy="217.64" fill="#132e65"></circle><circle r="5" cx="862.26" cy="386.61" fill="#132e65"></circle><circle r="5" cx="811.95" cy="697.78" fill="#132e65"></circle><circle r="5" cx="1009.79" cy="-96.88" fill="#132e65"></circle><circle r="5" cx="1007.32" cy="94.1" fill="#132e65"></circle><circle r="5" cx="939.73" cy="225.13" fill="#132e65"></circle><circle r="5" cx="974.22" cy="382.02" fill="#132e65"></circle><circle r="5" cx="1002.02" cy="501.09" fill="#132e65"></circle><circle r="5" cx="954.53" cy="663.57" fill="#132e65"></circle><circle r="5" cx="1117.82" cy="-68.15" fill="#132e65"></circle><circle r="5" cx="1089.36" cy="80.1" fill="#132e65"></circle><circle r="5" cx="1126.53" cy="232.79" fill="#132e65"></circle><circle r="5" cx="1114.7" cy="411.39" fill="#132e65"></circle><circle r="5" cx="1107.6" cy="553.72" fill="#132e65"></circle><circle r="5" cx="1111.02" cy="701.21" fill="#132e65"></circle><circle r="5" cx="1280.64" cy="-97.12" fill="#132e65"></circle><circle r="5" cx="1253.97" cy="66.78" fill="#132e65"></circle><circle r="5" cx="1259.04" cy="246.06" fill="#132e65"></circle><circle r="5" cx="1244.41" cy="394.93" fill="#132e65"></circle><circle r="5" cx="1258.6" cy="694.72" fill="#132e65"></circle><circle r="5" cx="1441.61" cy="-70.94" fill="#132e65"></circle><circle r="5" cx="1431.09" cy="71.48" fill="#132e65"></circle><circle r="5" cx="1406.55" cy="233.58" fill="#132e65"></circle><circle r="5" cx="1417.02" cy="401.83" fill="#132e65"></circle><circle r="5" cx="1450.94" cy="515.84" fill="#132e65"></circle><circle r="5" cx="1389.64" cy="642.24" fill="#132e65"></circle><circle r="5" cx="1577.09" cy="-79.83" fill="#132e65"></circle><circle r="5" cx="1602.29" cy="207.06" fill="#132e65"></circle><circle r="5" cx="1559.93" cy="683.98" fill="#132e65"></circle><path d="M211.23 649.79L211.23 649.79" stroke="hsl(228.5, 77.2%, 51.5%)" stroke-width="1.5"></path><path d="M211.23 649.79L252.21 530.58" stroke="hsl(228.5, 77.2%, 51.5%)" stroke-width="1.5"></path><path d="M211.23 649.79L71.99 667.8" stroke="hsl(228.5, 77.2%, 51.5%)" stroke-width="1.5"></path><path d="M211.23 649.79L88.35 550.99" stroke="hsl(228.5, 77.2%, 51.5%)" stroke-width="1.5"></path><path d="M381.41 645.02L381.41 645.02" stroke="hsl(228.5, 77.2%, 51.5%)" stroke-width="1.5"></path><path d="M381.41 645.02L407.75 526.66" stroke="hsl(228.5, 77.2%, 51.5%)" stroke-width="1.5"></path><path d="M381.41 645.02L488.73 561.41" stroke="hsl(228.5, 77.2%, 51.5%)" stroke-width="1.5"></path><path d="M381.41 645.02L211.23 649.79" stroke="hsl(228.5, 77.2%, 51.5%)" stroke-width="1.5"></path><path d="M381.41 645.02L541.96 702.38" stroke="hsl(228.5, 77.2%, 51.5%)" stroke-width="1.5"></path><path d="M381.41 645.02L252.21 530.58" stroke="hsl(228.5, 77.2%, 51.5%)" stroke-width="1.5"></path><path d="M381.41 645.02L538.13 399.8" stroke="hsl(228.5, 77.2%, 51.5%)" stroke-width="1.5"></path><path d="M538.13 399.8L538.13 399.8" stroke="hsl(228.5, 77.2%, 51.5%)" stroke-width="1.5"></path><path d="M538.13 399.8L654.13 506.12" stroke="hsl(228.5, 77.2%, 51.5%)" stroke-width="1.5"></path><path d="M538.13 399.8L488.73 561.41" stroke="hsl(228.5, 77.2%, 51.5%)" stroke-width="1.5"></path><path d="M538.13 399.8L706.16 375.94" stroke="hsl(228.5, 77.2%, 51.5%)" stroke-width="1.5"></path><path d="M538.13 399.8L407.75 526.66" stroke="hsl(228.5, 77.2%, 51.5%)" stroke-width="1.5"></path><path d="M538.13 399.8L794 341.67" stroke="hsl(228.5, 77.2%, 51.5%)" stroke-width="1.5"></path><path d="M488.73 561.41L488.73 561.41" stroke="hsl(228.5, 77.2%, 51.5%)" stroke-width="1.5"></path><path d="M488.73 561.41L407.75 526.66" stroke="hsl(228.5, 77.2%, 51.5%)" stroke-width="1.5"></path><path d="M794 341.67L794 341.67" stroke="hsl(228.5, 77.2%, 51.5%)" stroke-width="1.5"></path><path d="M794 341.67L706.16 375.94" stroke="hsl(228.5, 77.2%, 51.5%)" stroke-width="1.5"></path><path d="M794 341.67L800.17 543.44" stroke="hsl(228.5, 77.2%, 51.5%)" stroke-width="1.5"></path><path d="M794 341.67L996.7 409.22" stroke="hsl(228.5, 77.2%, 51.5%)" stroke-width="1.5"></path><path d="M1157.14 -65.96L1157.14 -65.96" stroke="hsl(228.5, 77.2%, 51.5%)" stroke-width="1.5"></path><path d="M1157.14 -65.96L1288.96 -43.18" stroke="hsl(228.5, 77.2%, 51.5%)" stroke-width="1.5"></path><path d="M1157.14 -65.96L1149.56 88.94" stroke="hsl(228.5, 77.2%, 51.5%)" stroke-width="1.5"></path><path d="M1157.14 -65.96L1312.04 73.64" stroke="hsl(228.5, 77.2%, 51.5%)" stroke-width="1.5"></path><path d="M1288.96 -43.18L1288.96 -43.18" stroke="hsl(228.5, 77.2%, 51.5%)" stroke-width="1.5"></path><path d="M1288.96 -43.18L1312.04 73.64" stroke="hsl(228.5, 77.2%, 51.5%)" stroke-width="1.5"></path><path d="M1288.96 -43.18L1429.98 54.77" stroke="hsl(228.5, 77.2%, 51.5%)" stroke-width="1.5"></path><path d="M1288.96 -43.18L1460.6 -69.55" stroke="hsl(228.5, 77.2%, 51.5%)" stroke-width="1.5"></path><path d="M1288.96 -43.18L1149.56 88.94" stroke="hsl(228.5, 77.2%, 51.5%)" stroke-width="1.5"></path><path d="M1288.96 -43.18L1248.94 241.06" stroke="hsl(228.5, 77.2%, 51.5%)" stroke-width="1.5"></path><path d="M1254.47 369.67L1254.47 369.67" stroke="hsl(228.5, 77.2%, 51.5%)" stroke-width="1.5"></path><path d="M1254.47 369.67L1248.94 241.06" stroke="hsl(228.5, 77.2%, 51.5%)" stroke-width="1.5"></path><path d="M1254.47 369.67L1302.37 498.35" stroke="hsl(228.5, 77.2%, 51.5%)" stroke-width="1.5"></path><path d="M1254.47 369.67L1120.63 412.38" stroke="hsl(228.5, 77.2%, 51.5%)" stroke-width="1.5"></path><path d="M-72.32 559.92L-72.32 559.92" stroke="hsl(228.5, 77.2%, 51.5%)" stroke-width="1.5"></path><path d="M-72.32 559.92L88.35 550.99" stroke="hsl(228.5, 77.2%, 51.5%)" stroke-width="1.5"></path><path d="M-72.32 559.92L71.99 667.8" stroke="hsl(228.5, 77.2%, 51.5%)" stroke-width="1.5"></path><path d="M-72.32 559.92L211.23 649.79" stroke="hsl(228.5, 77.2%, 51.5%)" stroke-width="1.5"></path><path d="M-72.32 559.92L252.21 530.58" stroke="hsl(228.5, 77.2%, 51.5%)" stroke-width="1.5"></path><path d="M-72.32 559.92L381.41 645.02" stroke="hsl(228.5, 77.2%, 51.5%)" stroke-width="1.5"></path><path d="M88.35 550.99L88.35 550.99" stroke="hsl(228.5, 77.2%, 51.5%)" stroke-width="1.5"></path><path d="M88.35 550.99L71.99 667.8" stroke="hsl(228.5, 77.2%, 51.5%)" stroke-width="1.5"></path><path d="M88.35 550.99L252.21 530.58" stroke="hsl(228.5, 77.2%, 51.5%)" stroke-width="1.5"></path><path d="M88.35 550.99L381.41 645.02" stroke="hsl(228.5, 77.2%, 51.5%)" stroke-width="1.5"></path><path d="M88.35 550.99L407.75 526.66" stroke="hsl(228.5, 77.2%, 51.5%)" stroke-width="1.5"></path><path d="M71.99 667.8L71.99 667.8" stroke="hsl(228.5, 77.2%, 51.5%)" stroke-width="1.5"></path><path d="M71.99 667.8L252.21 530.58" stroke="hsl(228.5, 77.2%, 51.5%)" stroke-width="1.5"></path><path d="M71.99 667.8L381.41 645.02" stroke="hsl(228.5, 77.2%, 51.5%)" stroke-width="1.5"></path><path d="M71.99 667.8L407.75 526.66" stroke="hsl(228.5, 77.2%, 51.5%)" stroke-width="1.5"></path><path d="M252.21 530.58L252.21 530.58" stroke="hsl(228.5, 77.2%, 51.5%)" stroke-width="1.5"></path><path d="M252.21 530.58L407.75 526.66" stroke="hsl(228.5, 77.2%, 51.5%)" stroke-width="1.5"></path><path d="M407.75 526.66L407.75 526.66" stroke="hsl(228.5, 77.2%, 51.5%)" stroke-width="1.5"></path><path d="M541.96 702.38L541.96 702.38" stroke="hsl(228.5, 77.2%, 51.5%)" stroke-width="1.5"></path><path d="M541.96 702.38L488.73 561.41" stroke="hsl(228.5, 77.2%, 51.5%)" stroke-width="1.5"></path><path d="M541.96 702.38L407.75 526.66" stroke="hsl(228.5, 77.2%, 51.5%)" stroke-width="1.5"></path><path d="M541.96 702.38L654.13 506.12" stroke="hsl(228.5, 77.2%, 51.5%)" stroke-width="1.5"></path><path d="M706.16 375.94L706.16 375.94" stroke="hsl(228.5, 77.2%, 51.5%)" stroke-width="1.5"></path><path d="M706.16 375.94L654.13 506.12" stroke="hsl(228.5, 77.2%, 51.5%)" stroke-width="1.5"></path><path d="M706.16 375.94L800.17 543.44" stroke="hsl(228.5, 77.2%, 51.5%)" stroke-width="1.5"></path><path d="M706.16 375.94L960.42 495.75" stroke="hsl(228.5, 77.2%, 51.5%)" stroke-width="1.5"></path><path d="M706.16 375.94L488.73 561.41" stroke="hsl(228.5, 77.2%, 51.5%)" stroke-width="1.5"></path><path d="M654.13 506.12L654.13 506.12" stroke="hsl(228.5, 77.2%, 51.5%)" stroke-width="1.5"></path><path d="M654.13 506.12L800.17 543.44" stroke="hsl(228.5, 77.2%, 51.5%)" stroke-width="1.5"></path><path d="M800.17 543.44L800.17 543.44" stroke="hsl(228.5, 77.2%, 51.5%)" stroke-width="1.5"></path><path d="M800.17 543.44L799.58 687.38" stroke="hsl(228.5, 77.2%, 51.5%)" stroke-width="1.5"></path><path d="M800.17 543.44L960.42 495.75" stroke="hsl(228.5, 77.2%, 51.5%)" stroke-width="1.5"></path><path d="M799.58 687.38L799.58 687.38" stroke="hsl(228.5, 77.2%, 51.5%)" stroke-width="1.5"></path><path d="M996.7 409.22L996.7 409.22" stroke="hsl(228.5, 77.2%, 51.5%)" stroke-width="1.5"></path><path d="M996.7 409.22L960.42 495.75" stroke="hsl(228.5, 77.2%, 51.5%)" stroke-width="1.5"></path><path d="M996.7 409.22L1120.63 412.38" stroke="hsl(228.5, 77.2%, 51.5%)" stroke-width="1.5"></path><path d="M960.42 495.75L960.42 495.75" stroke="hsl(228.5, 77.2%, 51.5%)" stroke-width="1.5"></path><path d="M960.42 495.75L1101.16 519.23" stroke="hsl(228.5, 77.2%, 51.5%)" stroke-width="1.5"></path><path d="M992.28 667.41L992.28 667.41" stroke="hsl(228.5, 77.2%, 51.5%)" stroke-width="1.5"></path><path d="M992.28 667.41L1114.48 709.16" stroke="hsl(228.5, 77.2%, 51.5%)" stroke-width="1.5"></path><path d="M992.28 667.41L960.42 495.75" stroke="hsl(228.5, 77.2%, 51.5%)" stroke-width="1.5"></path><path d="M992.28 667.41L1101.16 519.23" stroke="hsl(228.5, 77.2%, 51.5%)" stroke-width="1.5"></path><path d="M992.28 667.41L799.58 687.38" stroke="hsl(228.5, 77.2%, 51.5%)" stroke-width="1.5"></path><path d="M992.28 667.41L800.17 543.44" stroke="hsl(228.5, 77.2%, 51.5%)" stroke-width="1.5"></path><path d="M992.28 667.41L996.7 409.22" stroke="hsl(228.5, 77.2%, 51.5%)" stroke-width="1.5"></path><path d="M1149.56 88.94L1149.56 88.94" stroke="hsl(228.5, 77.2%, 51.5%)" stroke-width="1.5"></path><path d="M1149.56 88.94L1117.88 227.4" stroke="hsl(228.5, 77.2%, 51.5%)" stroke-width="1.5"></path><path d="M1149.56 88.94L1312.04 73.64" stroke="hsl(228.5, 77.2%, 51.5%)" stroke-width="1.5"></path><path d="M1149.56 88.94L1248.94 241.06" stroke="hsl(228.5, 77.2%, 51.5%)" stroke-width="1.5"></path><path d="M1149.56 88.94L1429.98 54.77" stroke="hsl(228.5, 77.2%, 51.5%)" stroke-width="1.5"></path><path d="M1117.88 227.4L1117.88 227.4" stroke="hsl(228.5, 77.2%, 51.5%)" stroke-width="1.5"></path><path d="M1117.88 227.4L1248.94 241.06" stroke="hsl(228.5, 77.2%, 51.5%)" stroke-width="1.5"></path><path d="M1120.63 412.38L1120.63 412.38" stroke="hsl(228.5, 77.2%, 51.5%)" stroke-width="1.5"></path><path d="M1120.63 412.38L1101.16 519.23" stroke="hsl(228.5, 77.2%, 51.5%)" stroke-width="1.5"></path><path d="M1101.16 519.23L1101.16 519.23" stroke="hsl(228.5, 77.2%, 51.5%)" stroke-width="1.5"></path><path d="M1101.16 519.23L996.7 409.22" stroke="hsl(228.5, 77.2%, 51.5%)" stroke-width="1.5"></path><path d="M1114.48 709.16L1114.48 709.16" stroke="hsl(228.5, 77.2%, 51.5%)" stroke-width="1.5"></path><path d="M1114.48 709.16L1249.37 699.18" stroke="hsl(228.5, 77.2%, 51.5%)" stroke-width="1.5"></path><path d="M1114.48 709.16L1101.16 519.23" stroke="hsl(228.5, 77.2%, 51.5%)" stroke-width="1.5"></path><path d="M1312.04 73.64L1312.04 73.64" stroke="hsl(228.5, 77.2%, 51.5%)" stroke-width="1.5"></path><path d="M1312.04 73.64L1429.98 54.77" stroke="hsl(228.5, 77.2%, 51.5%)" stroke-width="1.5"></path><path d="M1248.94 241.06L1248.94 241.06" stroke="hsl(228.5, 77.2%, 51.5%)" stroke-width="1.5"></path><path d="M1248.94 241.06L1312.04 73.64" stroke="hsl(228.5, 77.2%, 51.5%)" stroke-width="1.5"></path><path d="M1248.94 241.06L1450.17 238.88" stroke="hsl(228.5, 77.2%, 51.5%)" stroke-width="1.5"></path><path d="M1302.37 498.35L1302.37 498.35" stroke="hsl(228.5, 77.2%, 51.5%)" stroke-width="1.5"></path><path d="M1302.37 498.35L1388.69 499.91" stroke="hsl(228.5, 77.2%, 51.5%)" stroke-width="1.5"></path><path d="M1302.37 498.35L1398.87 383.37" stroke="hsl(228.5, 77.2%, 51.5%)" stroke-width="1.5"></path><path d="M1302.37 498.35L1120.63 412.38" stroke="hsl(228.5, 77.2%, 51.5%)" stroke-width="1.5"></path><path d="M1249.37 699.18L1249.37 699.18" stroke="hsl(228.5, 77.2%, 51.5%)" stroke-width="1.5"></path><path d="M1249.37 699.18L1302.37 498.35" stroke="hsl(228.5, 77.2%, 51.5%)" stroke-width="1.5"></path><path d="M1249.37 699.18L1101.16 519.23" stroke="hsl(228.5, 77.2%, 51.5%)" stroke-width="1.5"></path><path d="M1249.37 699.18L1388.69 499.91" stroke="hsl(228.5, 77.2%, 51.5%)" stroke-width="1.5"></path><path d="M1460.6 -69.55L1460.6 -69.55" stroke="hsl(228.5, 77.2%, 51.5%)" stroke-width="1.5"></path><path d="M1460.6 -69.55L1575.94 -95.4" stroke="hsl(228.5, 77.2%, 51.5%)" stroke-width="1.5"></path><path d="M1460.6 -69.55L1429.98 54.77" stroke="hsl(228.5, 77.2%, 51.5%)" stroke-width="1.5"></path><path d="M1460.6 -69.55L1312.04 73.64" stroke="hsl(228.5, 77.2%, 51.5%)" stroke-width="1.5"></path><path d="M1460.6 -69.55L1157.14 -65.96" stroke="hsl(228.5, 77.2%, 51.5%)" stroke-width="1.5"></path><path d="M1429.98 54.77L1429.98 54.77" stroke="hsl(228.5, 77.2%, 51.5%)" stroke-width="1.5"></path><path d="M1450.17 238.88L1450.17 238.88" stroke="hsl(228.5, 77.2%, 51.5%)" stroke-width="1.5"></path><path d="M1450.17 238.88L1579.93 210.21" stroke="hsl(228.5, 77.2%, 51.5%)" stroke-width="1.5"></path><path d="M1450.17 238.88L1398.87 383.37" stroke="hsl(228.5, 77.2%, 51.5%)" stroke-width="1.5"></path><path d="M1450.17 238.88L1429.98 54.77" stroke="hsl(228.5, 77.2%, 51.5%)" stroke-width="1.5"></path><path d="M1450.17 238.88L1312.04 73.64" stroke="hsl(228.5, 77.2%, 51.5%)" stroke-width="1.5"></path><path d="M1398.87 383.37L1398.87 383.37" stroke="hsl(228.5, 77.2%, 51.5%)" stroke-width="1.5"></path><path d="M1398.87 383.37L1388.69 499.91" stroke="hsl(228.5, 77.2%, 51.5%)" stroke-width="1.5"></path><path d="M1398.87 383.37L1254.47 369.67" stroke="hsl(228.5, 77.2%, 51.5%)" stroke-width="1.5"></path><path d="M1388.69 499.91L1388.69 499.91" stroke="hsl(228.5, 77.2%, 51.5%)" stroke-width="1.5"></path><path d="M1388.69 499.91L1254.47 369.67" stroke="hsl(228.5, 77.2%, 51.5%)" stroke-width="1.5"></path><path d="M1575.94 -95.4L1575.94 -95.4" stroke="hsl(228.5, 77.2%, 51.5%)" stroke-width="1.5"></path><path d="M1575.94 -95.4L1429.98 54.77" stroke="hsl(228.5, 77.2%, 51.5%)" stroke-width="1.5"></path><path d="M1575.94 -95.4L1288.96 -43.18" stroke="hsl(228.5, 77.2%, 51.5%)" stroke-width="1.5"></path><path d="M1575.94 -95.4L1579.93 210.21" stroke="hsl(228.5, 77.2%, 51.5%)" stroke-width="1.5"></path><path d="M1579.93 210.21L1579.93 210.21" stroke="hsl(228.5, 77.2%, 51.5%)" stroke-width="1.5"></path><path d="M1579.93 210.21L1605.88 411.69" stroke="hsl(228.5, 77.2%, 51.5%)" stroke-width="1.5"></path><path d="M1579.93 210.21L1429.98 54.77" stroke="hsl(228.5, 77.2%, 51.5%)" stroke-width="1.5"></path><path d="M1579.93 210.21L1398.87 383.37" stroke="hsl(228.5, 77.2%, 51.5%)" stroke-width="1.5"></path><path d="M1579.93 210.21L1312.04 73.64" stroke="hsl(228.5, 77.2%, 51.5%)" stroke-width="1.5"></path><path d="M1579.93 210.21L1460.6 -69.55" stroke="hsl(228.5, 77.2%, 51.5%)" stroke-width="1.5"></path><path d="M1605.88 411.69L1605.88 411.69" stroke="hsl(228.5, 77.2%, 51.5%)" stroke-width="1.5"></path><path d="M1605.88 411.69L1609.93 518.82" stroke="hsl(228.5, 77.2%, 51.5%)" stroke-width="1.5"></path><path d="M1609.93 518.82L1609.93 518.82" stroke="hsl(228.5, 77.2%, 51.5%)" stroke-width="1.5"></path><path d="M1609.82 643.24L1609.82 643.24" stroke="hsl(228.5, 77.2%, 51.5%)" stroke-width="1.5"></path><path d="M1609.82 643.24L1609.93 518.82" stroke="hsl(228.5, 77.2%, 51.5%)" stroke-width="1.5"></path><path d="M1609.82 643.24L1605.88 411.69" stroke="hsl(228.5, 77.2%, 51.5%)" stroke-width="1.5"></path><circle r="25" cx="211.23" cy="649.79" fill="url(&quot;#SvgjsRadialGradient1091&quot;)"></circle><circle r="25" cx="381.41" cy="645.02" fill="url(&quot;#SvgjsRadialGradient1091&quot;)"></circle><circle r="25" cx="538.13" cy="399.8" fill="url(&quot;#SvgjsRadialGradient1091&quot;)"></circle><circle r="25" cx="488.73" cy="561.41" fill="url(&quot;#SvgjsRadialGradient1091&quot;)"></circle><circle r="25" cx="794" cy="341.67" fill="url(&quot;#SvgjsRadialGradient1091&quot;)"></circle><circle r="25" cx="1157.14" cy="-65.96" fill="url(&quot;#SvgjsRadialGradient1091&quot;)"></circle><circle r="25" cx="1288.96" cy="-43.18" fill="url(&quot;#SvgjsRadialGradient1091&quot;)"></circle><circle r="25" cx="1254.47" cy="369.67" fill="url(&quot;#SvgjsRadialGradient1091&quot;)"></circle><circle r="5" cx="-72.32" cy="559.92" fill="#8b9ad9"></circle><circle r="5" cx="88.35" cy="550.99" fill="#8b9ad9"></circle><circle r="5" cx="71.99" cy="667.8" fill="#8b9ad9"></circle><circle r="5" cx="252.21" cy="530.58" fill="#8b9ad9"></circle><circle r="5" cx="407.75" cy="526.66" fill="#8b9ad9"></circle><circle r="5" cx="541.96" cy="702.38" fill="#8b9ad9"></circle><circle r="5" cx="706.16" cy="375.94" fill="#8b9ad9"></circle><circle r="5" cx="654.13" cy="506.12" fill="#8b9ad9"></circle><circle r="5" cx="800.17" cy="543.44" fill="#8b9ad9"></circle><circle r="5" cx="799.58" cy="687.38" fill="#8b9ad9"></circle><circle r="5" cx="996.7" cy="409.22" fill="#8b9ad9"></circle><circle r="5" cx="960.42" cy="495.75" fill="#8b9ad9"></circle><circle r="5" cx="992.28" cy="667.41" fill="#8b9ad9"></circle><circle r="5" cx="1149.56" cy="88.94" fill="#8b9ad9"></circle><circle r="5" cx="1117.88" cy="227.4" fill="#8b9ad9"></circle><circle r="5" cx="1120.63" cy="412.38" fill="#8b9ad9"></circle><circle r="5" cx="1101.16" cy="519.23" fill="#8b9ad9"></circle><circle r="5" cx="1114.48" cy="709.16" fill="#8b9ad9"></circle><circle r="5" cx="1312.04" cy="73.64" fill="#8b9ad9"></circle><circle r="5" cx="1248.94" cy="241.06" fill="#8b9ad9"></circle><circle r="5" cx="1302.37" cy="498.35" fill="#8b9ad9"></circle><circle r="5" cx="1249.37" cy="699.18" fill="#8b9ad9"></circle><circle r="5" cx="1460.6" cy="-69.55" fill="#8b9ad9"></circle><circle r="5" cx="1429.98" cy="54.77" fill="#8b9ad9"></circle><circle r="5" cx="1450.17" cy="238.88" fill="#8b9ad9"></circle><circle r="5" cx="1398.87" cy="383.37" fill="#8b9ad9"></circle><circle r="5" cx="1388.69" cy="499.91" fill="#8b9ad9"></circle><circle r="5" cx="1575.94" cy="-95.4" fill="#8b9ad9"></circle><circle r="5" cx="1579.93" cy="210.21" fill="#8b9ad9"></circle><circle r="5" cx="1605.88" cy="411.69" fill="#8b9ad9"></circle><circle r="5" cx="1609.93" cy="518.82" fill="#8b9ad9"></circle><circle r="5" cx="1609.82" cy="643.24" fill="#8b9ad9"></circle></g><defs><mask id="SvgjsMask1090"><rect width="1440" height="560" fill="#ffffff"></rect></mask><radialGradient id="SvgjsRadialGradient1091"><stop stop-color="#ffffff" offset="0.1"></stop><stop stop-color="#1735b3" offset="0.2"></stop><stop stop-color="rgba(23, 53, 179, 0)" offset="1"></stop></radialGradient></defs></svg>