<svg xmlns="http://www.w3.org/2000/svg" version="1.1" xmlns:xlink="http://www.w3.org/1999/xlink" xmlns:svgjs="http://svgjs.dev/svgjs" width="1440" height="560" preserveAspectRatio="none" viewBox="0 0 1440 560"><g mask="url(&quot;#SvgjsMask1094&quot;)" fill="none"><rect width="1440" height="560" x="0" y="0" fill="rgba(22, 22, 24, 1)"></rect><path d="M-91.04 373.14L-91.04 373.14" stroke="#132e65" stroke-width="1.5"></path><path d="M-91.04 373.14L-77.48 525.53" stroke="#132e65" stroke-width="1.5"></path><path d="M-91.04 373.14L78.39 504.51" stroke="#132e65" stroke-width="1.5"></path><path d="M-91.04 373.14L208.76 369.46" stroke="#132e65" stroke-width="1.5"></path><path d="M-91.04 373.14L89.22 646.79" stroke="#132e65" stroke-width="1.5"></path><path d="M-77.48 525.53L-77.48 525.53" stroke="#132e65" stroke-width="1.5"></path><path d="M-77.48 525.53L78.39 504.51" stroke="#132e65" stroke-width="1.5"></path><path d="M-77.48 525.53L-106.21 704.73" stroke="#132e65" stroke-width="1.5"></path><path d="M-77.48 525.53L89.22 646.79" stroke="#132e65" stroke-width="1.5"></path><path d="M-106.21 704.73L-106.21 704.73" stroke="#132e65" stroke-width="1.5"></path><path d="M-106.21 704.73L89.22 646.79" stroke="#132e65" stroke-width="1.5"></path><path d="M78.39 504.51L78.39 504.51" stroke="#132e65" stroke-width="1.5"></path><path d="M78.39 504.51L89.22 646.79" stroke="#132e65" stroke-width="1.5"></path><path d="M78.39 504.51L243.83 553.19" stroke="#132e65" stroke-width="1.5"></path><path d="M78.39 504.51L208.76 369.46" stroke="#132e65" stroke-width="1.5"></path><path d="M89.22 646.79L89.22 646.79" stroke="#132e65" stroke-width="1.5"></path><path d="M89.22 646.79L209.3 689.06" stroke="#132e65" stroke-width="1.5"></path><path d="M89.22 646.79L243.83 553.19" stroke="#132e65" stroke-width="1.5"></path><path d="M208.76 369.46L208.76 369.46" stroke="#132e65" stroke-width="1.5"></path><path d="M208.76 369.46L374.8 344.28" stroke="#132e65" stroke-width="1.5"></path><path d="M208.76 369.46L243.83 553.19" stroke="#132e65" stroke-width="1.5"></path><path d="M208.76 369.46L368.6 514.51" stroke="#132e65" stroke-width="1.5"></path><path d="M243.83 553.19L243.83 553.19" stroke="#132e65" stroke-width="1.5"></path><path d="M243.83 553.19L368.6 514.51" stroke="#132e65" stroke-width="1.5"></path><path d="M243.83 553.19L209.3 689.06" stroke="#132e65" stroke-width="1.5"></path><path d="M209.3 689.06L209.3 689.06" stroke="#132e65" stroke-width="1.5"></path><path d="M374.8 344.28L374.8 344.28" stroke="#132e65" stroke-width="1.5"></path><path d="M374.8 344.28L368.6 514.51" stroke="#132e65" stroke-width="1.5"></path><path d="M374.8 344.28L549.41 396.54" stroke="#132e65" stroke-width="1.5"></path><path d="M374.8 344.28L554.27 495.23" stroke="#132e65" stroke-width="1.5"></path><path d="M374.8 344.28L243.83 553.19" stroke="#132e65" stroke-width="1.5"></path><path d="M368.6 514.51L368.6 514.51" stroke="#132e65" stroke-width="1.5"></path><path d="M368.6 514.51L364.18 699.53" stroke="#132e65" stroke-width="1.5"></path><path d="M368.6 514.51L554.27 495.23" stroke="#132e65" stroke-width="1.5"></path><path d="M368.6 514.51L529.34 644.92" stroke="#132e65" stroke-width="1.5"></path><path d="M364.18 699.53L364.18 699.53" stroke="#132e65" stroke-width="1.5"></path><path d="M364.18 699.53L209.3 689.06" stroke="#132e65" stroke-width="1.5"></path><path d="M364.18 699.53L529.34 644.92" stroke="#132e65" stroke-width="1.5"></path><path d="M549.41 396.54L549.41 396.54" stroke="#132e65" stroke-width="1.5"></path><path d="M549.41 396.54L554.27 495.23" stroke="#132e65" stroke-width="1.5"></path><path d="M549.41 396.54L711.84 376.32" stroke="#132e65" stroke-width="1.5"></path><path d="M549.41 396.54L368.6 514.51" stroke="#132e65" stroke-width="1.5"></path><path d="M554.27 495.23L554.27 495.23" stroke="#132e65" stroke-width="1.5"></path><path d="M554.27 495.23L529.34 644.92" stroke="#132e65" stroke-width="1.5"></path><path d="M554.27 495.23L693.7 560.42" stroke="#132e65" stroke-width="1.5"></path><path d="M554.27 495.23L711.84 376.32" stroke="#132e65" stroke-width="1.5"></path><path d="M529.34 644.92L529.34 644.92" stroke="#132e65" stroke-width="1.5"></path><path d="M676.26 213.26L676.26 213.26" stroke="#132e65" stroke-width="1.5"></path><path d="M676.26 213.26L711.84 376.32" stroke="#132e65" stroke-width="1.5"></path><path d="M676.26 213.26L833.61 340.21" stroke="#132e65" stroke-width="1.5"></path><path d="M676.26 213.26L549.41 396.54" stroke="#132e65" stroke-width="1.5"></path><path d="M676.26 213.26L554.27 495.23" stroke="#132e65" stroke-width="1.5"></path><path d="M676.26 213.26L974.61 80.84" stroke="#132e65" stroke-width="1.5"></path><path d="M711.84 376.32L711.84 376.32" stroke="#132e65" stroke-width="1.5"></path><path d="M711.84 376.32L833.61 340.21" stroke="#132e65" stroke-width="1.5"></path><path d="M711.84 376.32L693.7 560.42" stroke="#132e65" stroke-width="1.5"></path><path d="M693.7 560.42L693.7 560.42" stroke="#132e65" stroke-width="1.5"></path><path d="M693.7 560.42L847.03 553.94" stroke="#132e65" stroke-width="1.5"></path><path d="M693.7 560.42L839.46 669.3" stroke="#132e65" stroke-width="1.5"></path><path d="M693.7 560.42L529.34 644.92" stroke="#132e65" stroke-width="1.5"></path><path d="M833.61 340.21L833.61 340.21" stroke="#132e65" stroke-width="1.5"></path><path d="M833.61 340.21L969.22 390.71" stroke="#132e65" stroke-width="1.5"></path><path d="M833.61 340.21L847.03 553.94" stroke="#132e65" stroke-width="1.5"></path><path d="M847.03 553.94L847.03 553.94" stroke="#132e65" stroke-width="1.5"></path><path d="M847.03 553.94L839.46 669.3" stroke="#132e65" stroke-width="1.5"></path><path d="M847.03 553.94L992.28 540.81" stroke="#132e65" stroke-width="1.5"></path><path d="M847.03 553.94L969.22 390.71" stroke="#132e65" stroke-width="1.5"></path><path d="M839.46 669.3L839.46 669.3" stroke="#132e65" stroke-width="1.5"></path><path d="M839.46 669.3L992.28 540.81" stroke="#132e65" stroke-width="1.5"></path><path d="M839.46 669.3L1097.56 657.68" stroke="#132e65" stroke-width="1.5"></path><path d="M974.61 80.84L974.61 80.84" stroke="#132e65" stroke-width="1.5"></path><path d="M974.61 80.84L1109.78 51.96" stroke="#132e65" stroke-width="1.5"></path><path d="M974.61 80.84L1118.18 -95.85" stroke="#132e65" stroke-width="1.5"></path><path d="M969.22 390.71L969.22 390.71" stroke="#132e65" stroke-width="1.5"></path><path d="M969.22 390.71L992.28 540.81" stroke="#132e65" stroke-width="1.5"></path><path d="M969.22 390.71L1094.21 491" stroke="#132e65" stroke-width="1.5"></path><path d="M969.22 390.71L1159.95 394.91" stroke="#132e65" stroke-width="1.5"></path><path d="M992.28 540.81L992.28 540.81" stroke="#132e65" stroke-width="1.5"></path><path d="M992.28 540.81L1094.21 491" stroke="#132e65" stroke-width="1.5"></path><path d="M992.28 540.81L1097.56 657.68" stroke="#132e65" stroke-width="1.5"></path><path d="M1118.18 -95.85L1118.18 -95.85" stroke="#132e65" stroke-width="1.5"></path><path d="M1118.18 -95.85L1109.78 51.96" stroke="#132e65" stroke-width="1.5"></path><path d="M1118.18 -95.85L1276.72 84.37" stroke="#132e65" stroke-width="1.5"></path><path d="M1118.18 -95.85L1390.98 66.9" stroke="#132e65" stroke-width="1.5"></path><path d="M1118.18 -95.85L1460.67 -47.64" stroke="#132e65" stroke-width="1.5"></path><path d="M1118.18 -95.85L1278.2 245.44" stroke="#132e65" stroke-width="1.5"></path><path d="M1109.78 51.96L1109.78 51.96" stroke="#132e65" stroke-width="1.5"></path><path d="M1109.78 51.96L1276.72 84.37" stroke="#132e65" stroke-width="1.5"></path><path d="M1109.78 51.96L1278.2 245.44" stroke="#132e65" stroke-width="1.5"></path><path d="M1109.78 51.96L1390.98 66.9" stroke="#132e65" stroke-width="1.5"></path><path d="M1109.78 51.96L1268.76 357.03" stroke="#132e65" stroke-width="1.5"></path><path d="M1159.95 394.91L1159.95 394.91" stroke="#132e65" stroke-width="1.5"></path><path d="M1159.95 394.91L1268.76 357.03" stroke="#132e65" stroke-width="1.5"></path><path d="M1159.95 394.91L1094.21 491" stroke="#132e65" stroke-width="1.5"></path><path d="M1159.95 394.91L1278.2 245.44" stroke="#132e65" stroke-width="1.5"></path><path d="M1094.21 491L1094.21 491" stroke="#132e65" stroke-width="1.5"></path><path d="M1097.56 657.68L1097.56 657.68" stroke="#132e65" stroke-width="1.5"></path><path d="M1097.56 657.68L1094.21 491" stroke="#132e65" stroke-width="1.5"></path><path d="M1276.72 84.37L1276.72 84.37" stroke="#132e65" stroke-width="1.5"></path><path d="M1276.72 84.37L1390.98 66.9" stroke="#132e65" stroke-width="1.5"></path><path d="M1276.72 84.37L1278.2 245.44" stroke="#132e65" stroke-width="1.5"></path><path d="M1276.72 84.37L1460.67 -47.64" stroke="#132e65" stroke-width="1.5"></path><path d="M1276.72 84.37L1422.75 259.76" stroke="#132e65" stroke-width="1.5"></path><path d="M1278.2 245.44L1278.2 245.44" stroke="#132e65" stroke-width="1.5"></path><path d="M1278.2 245.44L1268.76 357.03" stroke="#132e65" stroke-width="1.5"></path><path d="M1278.2 245.44L1422.75 259.76" stroke="#132e65" stroke-width="1.5"></path><path d="M1278.2 245.44L1420.1 388.38" stroke="#132e65" stroke-width="1.5"></path><path d="M1278.2 245.44L1390.98 66.9" stroke="#132e65" stroke-width="1.5"></path><path d="M1268.76 357.03L1268.76 357.03" stroke="#132e65" stroke-width="1.5"></path><path d="M1268.76 357.03L1420.1 388.38" stroke="#132e65" stroke-width="1.5"></path><path d="M1289.5 548.04L1289.5 548.04" stroke="#132e65" stroke-width="1.5"></path><path d="M1289.5 548.04L1286.46 637.83" stroke="#132e65" stroke-width="1.5"></path><path d="M1289.5 548.04L1421.34 557.34" stroke="#132e65" stroke-width="1.5"></path><path d="M1289.5 548.04L1410.94 673.47" stroke="#132e65" stroke-width="1.5"></path><path d="M1289.5 548.04L1268.76 357.03" stroke="#132e65" stroke-width="1.5"></path><path d="M1286.46 637.83L1286.46 637.83" stroke="#132e65" stroke-width="1.5"></path><path d="M1286.46 637.83L1410.94 673.47" stroke="#132e65" stroke-width="1.5"></path><path d="M1286.46 637.83L1421.34 557.34" stroke="#132e65" stroke-width="1.5"></path><path d="M1460.67 -47.64L1460.67 -47.64" stroke="#132e65" stroke-width="1.5"></path><path d="M1460.67 -47.64L1390.98 66.9" stroke="#132e65" stroke-width="1.5"></path><path d="M1460.67 -47.64L1592.93 -91.44" stroke="#132e65" stroke-width="1.5"></path><path d="M1460.67 -47.64L1598.94 94.74" stroke="#132e65" stroke-width="1.5"></path><path d="M1390.98 66.9L1390.98 66.9" stroke="#132e65" stroke-width="1.5"></path><path d="M1422.75 259.76L1422.75 259.76" stroke="#132e65" stroke-width="1.5"></path><path d="M1422.75 259.76L1420.1 388.38" stroke="#132e65" stroke-width="1.5"></path><path d="M1422.75 259.76L1544.63 191.81" stroke="#132e65" stroke-width="1.5"></path><path d="M1420.1 388.38L1420.1 388.38" stroke="#132e65" stroke-width="1.5"></path><path d="M1420.1 388.38L1421.34 557.34" stroke="#132e65" stroke-width="1.5"></path><path d="M1420.1 388.38L1602.83 368.65" stroke="#132e65" stroke-width="1.5"></path><path d="M1421.34 557.34L1421.34 557.34" stroke="#132e65" stroke-width="1.5"></path><path d="M1421.34 557.34L1410.94 673.47" stroke="#132e65" stroke-width="1.5"></path><path d="M1410.94 673.47L1410.94 673.47" stroke="#132e65" stroke-width="1.5"></path><path d="M1410.94 673.47L1568.62 642.24" stroke="#132e65" stroke-width="1.5"></path><path d="M1410.94 673.47L1602.01 496.89" stroke="#132e65" stroke-width="1.5"></path><path d="M1410.94 673.47L1420.1 388.38" stroke="#132e65" stroke-width="1.5"></path><path d="M1592.93 -91.44L1592.93 -91.44" stroke="#132e65" stroke-width="1.5"></path><path d="M1592.93 -91.44L1598.94 94.74" stroke="#132e65" stroke-width="1.5"></path><path d="M1592.93 -91.44L1390.98 66.9" stroke="#132e65" stroke-width="1.5"></path><path d="M1592.93 -91.44L1544.63 191.81" stroke="#132e65" stroke-width="1.5"></path><path d="M1592.93 -91.44L1276.72 84.37" stroke="#132e65" stroke-width="1.5"></path><path d="M1592.93 -91.44L1422.75 259.76" stroke="#132e65" stroke-width="1.5"></path><path d="M1598.94 94.74L1598.94 94.74" stroke="#132e65" stroke-width="1.5"></path><path d="M1598.94 94.74L1544.63 191.81" stroke="#132e65" stroke-width="1.5"></path><path d="M1598.94 94.74L1390.98 66.9" stroke="#132e65" stroke-width="1.5"></path><path d="M1598.94 94.74L1422.75 259.76" stroke="#132e65" stroke-width="1.5"></path><path d="M1598.94 94.74L1602.83 368.65" stroke="#132e65" stroke-width="1.5"></path><path d="M1544.63 191.81L1544.63 191.81" stroke="#132e65" stroke-width="1.5"></path><path d="M1544.63 191.81L1602.83 368.65" stroke="#132e65" stroke-width="1.5"></path><path d="M1544.63 191.81L1390.98 66.9" stroke="#132e65" stroke-width="1.5"></path><path d="M1602.83 368.65L1602.83 368.65" stroke="#132e65" stroke-width="1.5"></path><path d="M1602.83 368.65L1602.01 496.89" stroke="#132e65" stroke-width="1.5"></path><path d="M1602.83 368.65L1422.75 259.76" stroke="#132e65" stroke-width="1.5"></path><path d="M1602.01 496.89L1602.01 496.89" stroke="#132e65" stroke-width="1.5"></path><path d="M1602.01 496.89L1568.62 642.24" stroke="#132e65" stroke-width="1.5"></path><path d="M1602.01 496.89L1421.34 557.34" stroke="#132e65" stroke-width="1.5"></path><path d="M1568.62 642.24L1568.62 642.24" stroke="#132e65" stroke-width="1.5"></path><path d="M1568.62 642.24L1421.34 557.34" stroke="#132e65" stroke-width="1.5"></path><path d="M1568.62 642.24L1602.83 368.65" stroke="#132e65" stroke-width="1.5"></path><circle r="5" cx="-91.04" cy="373.14" fill="#132e65"></circle><circle r="5" cx="-77.48" cy="525.53" fill="#132e65"></circle><circle r="5" cx="-106.21" cy="704.73" fill="#132e65"></circle><circle r="5" cx="78.39" cy="504.51" fill="#132e65"></circle><circle r="5" cx="89.22" cy="646.79" fill="#132e65"></circle><circle r="5" cx="208.76" cy="369.46" fill="#132e65"></circle><circle r="5" cx="243.83" cy="553.19" fill="#132e65"></circle><circle r="5" cx="209.3" cy="689.06" fill="#132e65"></circle><circle r="5" cx="374.8" cy="344.28" fill="#132e65"></circle><circle r="5" cx="368.6" cy="514.51" fill="#132e65"></circle><circle r="5" cx="364.18" cy="699.53" fill="#132e65"></circle><circle r="5" cx="549.41" cy="396.54" fill="#132e65"></circle><circle r="5" cx="554.27" cy="495.23" fill="#132e65"></circle><circle r="5" cx="529.34" cy="644.92" fill="#132e65"></circle><circle r="5" cx="676.26" cy="213.26" fill="#132e65"></circle><circle r="5" cx="711.84" cy="376.32" fill="#132e65"></circle><circle r="5" cx="693.7" cy="560.42" fill="#132e65"></circle><circle r="5" cx="833.61" cy="340.21" fill="#132e65"></circle><circle r="5" cx="847.03" cy="553.94" fill="#132e65"></circle><circle r="5" cx="839.46" cy="669.3" fill="#132e65"></circle><circle r="5" cx="974.61" cy="80.84" fill="#132e65"></circle><circle r="5" cx="969.22" cy="390.71" fill="#132e65"></circle><circle r="5" cx="992.28" cy="540.81" fill="#132e65"></circle><circle r="5" cx="1118.18" cy="-95.85" fill="#132e65"></circle><circle r="5" cx="1109.78" cy="51.96" fill="#132e65"></circle><circle r="5" cx="1159.95" cy="394.91" fill="#132e65"></circle><circle r="5" cx="1094.21" cy="491" fill="#132e65"></circle><circle r="5" cx="1097.56" cy="657.68" fill="#132e65"></circle><circle r="5" cx="1276.72" cy="84.37" fill="#132e65"></circle><circle r="5" cx="1278.2" cy="245.44" fill="#132e65"></circle><circle r="5" cx="1268.76" cy="357.03" fill="#132e65"></circle><circle r="5" cx="1289.5" cy="548.04" fill="#132e65"></circle><circle r="5" cx="1286.46" cy="637.83" fill="#132e65"></circle><circle r="5" cx="1460.67" cy="-47.64" fill="#132e65"></circle><circle r="5" cx="1390.98" cy="66.9" fill="#132e65"></circle><circle r="5" cx="1422.75" cy="259.76" fill="#132e65"></circle><circle r="5" cx="1420.1" cy="388.38" fill="#132e65"></circle><circle r="5" cx="1421.34" cy="557.34" fill="#132e65"></circle><circle r="5" cx="1410.94" cy="673.47" fill="#132e65"></circle><circle r="5" cx="1592.93" cy="-91.44" fill="#132e65"></circle><circle r="5" cx="1598.94" cy="94.74" fill="#132e65"></circle><circle r="5" cx="1544.63" cy="191.81" fill="#132e65"></circle><circle r="5" cx="1602.83" cy="368.65" fill="#132e65"></circle><circle r="5" cx="1602.01" cy="496.89" fill="#132e65"></circle><circle r="5" cx="1568.62" cy="642.24" fill="#132e65"></circle><path d="M49.65 677.69L49.65 677.69" stroke="hsl(228.5, 77.2%, 51.5%)" stroke-width="1.5"></path><path d="M49.65 677.69L-39.26 690.77" stroke="hsl(228.5, 77.2%, 51.5%)" stroke-width="1.5"></path><path d="M49.65 677.69L45.63 540.06" stroke="hsl(228.5, 77.2%, 51.5%)" stroke-width="1.5"></path><path d="M703.82 672.63L703.82 672.63" stroke="hsl(228.5, 77.2%, 51.5%)" stroke-width="1.5"></path><path d="M703.82 672.63L552.57 671.94" stroke="hsl(228.5, 77.2%, 51.5%)" stroke-width="1.5"></path><path d="M703.82 672.63L645.17 526.34" stroke="hsl(228.5, 77.2%, 51.5%)" stroke-width="1.5"></path><path d="M703.82 672.63L862.44 656.84" stroke="hsl(228.5, 77.2%, 51.5%)" stroke-width="1.5"></path><path d="M703.82 672.63L848.84 550.47" stroke="hsl(228.5, 77.2%, 51.5%)" stroke-width="1.5"></path><path d="M856.46 356.08L856.46 356.08" stroke="hsl(228.5, 77.2%, 51.5%)" stroke-width="1.5"></path><path d="M856.46 356.08L981.5 380.84" stroke="hsl(228.5, 77.2%, 51.5%)" stroke-width="1.5"></path><path d="M856.46 356.08L848.84 550.47" stroke="hsl(228.5, 77.2%, 51.5%)" stroke-width="1.5"></path><path d="M856.46 356.08L939.79 537.24" stroke="hsl(228.5, 77.2%, 51.5%)" stroke-width="1.5"></path><path d="M856.46 356.08L1096.76 390.06" stroke="hsl(228.5, 77.2%, 51.5%)" stroke-width="1.5"></path><path d="M856.46 356.08L645.17 526.34" stroke="hsl(228.5, 77.2%, 51.5%)" stroke-width="1.5"></path><path d="M862.44 656.84L862.44 656.84" stroke="hsl(228.5, 77.2%, 51.5%)" stroke-width="1.5"></path><path d="M862.44 656.84L848.84 550.47" stroke="hsl(228.5, 77.2%, 51.5%)" stroke-width="1.5"></path><path d="M862.44 656.84L1001.6 682.63" stroke="hsl(228.5, 77.2%, 51.5%)" stroke-width="1.5"></path><path d="M862.44 656.84L939.79 537.24" stroke="hsl(228.5, 77.2%, 51.5%)" stroke-width="1.5"></path><path d="M862.44 656.84L645.17 526.34" stroke="hsl(228.5, 77.2%, 51.5%)" stroke-width="1.5"></path><path d="M1271.18 554.09L1271.18 554.09" stroke="hsl(228.5, 77.2%, 51.5%)" stroke-width="1.5"></path><path d="M1271.18 554.09L1137.01 554.95" stroke="hsl(228.5, 77.2%, 51.5%)" stroke-width="1.5"></path><path d="M1271.18 554.09L1268.72 691.91" stroke="hsl(228.5, 77.2%, 51.5%)" stroke-width="1.5"></path><path d="M1271.18 554.09L1404.71 500.54" stroke="hsl(228.5, 77.2%, 51.5%)" stroke-width="1.5"></path><path d="M1271.18 554.09L1241.53 367.68" stroke="hsl(228.5, 77.2%, 51.5%)" stroke-width="1.5"></path><path d="M1271.18 554.09L1143.42 698.52" stroke="hsl(228.5, 77.2%, 51.5%)" stroke-width="1.5"></path><path d="M1271.18 554.09L1434.41 658.77" stroke="hsl(228.5, 77.2%, 51.5%)" stroke-width="1.5"></path><path d="M1582.01 -88.69L1582.01 -88.69" stroke="hsl(228.5, 77.2%, 51.5%)" stroke-width="1.5"></path><path d="M1582.01 -88.69L1456.24 -109.97" stroke="hsl(228.5, 77.2%, 51.5%)" stroke-width="1.5"></path><path d="M1582.01 -88.69L1579.92 111.06" stroke="hsl(228.5, 77.2%, 51.5%)" stroke-width="1.5"></path><path d="M1549.11 523.76L1549.11 523.76" stroke="hsl(228.5, 77.2%, 51.5%)" stroke-width="1.5"></path><path d="M1549.11 523.76L1573.51 645.61" stroke="hsl(228.5, 77.2%, 51.5%)" stroke-width="1.5"></path><path d="M1549.11 523.76L1572.74 380.85" stroke="hsl(228.5, 77.2%, 51.5%)" stroke-width="1.5"></path><path d="M1549.11 523.76L1404.71 500.54" stroke="hsl(228.5, 77.2%, 51.5%)" stroke-width="1.5"></path><path d="M1549.11 523.76L1434.41 658.77" stroke="hsl(228.5, 77.2%, 51.5%)" stroke-width="1.5"></path><path d="M-46.47 488.82L-46.47 488.82" stroke="hsl(228.5, 77.2%, 51.5%)" stroke-width="1.5"></path><path d="M-46.47 488.82L45.63 540.06" stroke="hsl(228.5, 77.2%, 51.5%)" stroke-width="1.5"></path><path d="M-46.47 488.82L-39.26 690.77" stroke="hsl(228.5, 77.2%, 51.5%)" stroke-width="1.5"></path><path d="M-46.47 488.82L49.65 677.69" stroke="hsl(228.5, 77.2%, 51.5%)" stroke-width="1.5"></path><path d="M-39.26 690.77L-39.26 690.77" stroke="hsl(228.5, 77.2%, 51.5%)" stroke-width="1.5"></path><path d="M45.63 540.06L45.63 540.06" stroke="hsl(228.5, 77.2%, 51.5%)" stroke-width="1.5"></path><path d="M45.63 540.06L-39.26 690.77" stroke="hsl(228.5, 77.2%, 51.5%)" stroke-width="1.5"></path><path d="M259.75 516.96L259.75 516.96" stroke="hsl(228.5, 77.2%, 51.5%)" stroke-width="1.5"></path><path d="M259.75 516.96L339.97 521.06" stroke="hsl(228.5, 77.2%, 51.5%)" stroke-width="1.5"></path><path d="M259.75 516.96L189.55 687.8" stroke="hsl(228.5, 77.2%, 51.5%)" stroke-width="1.5"></path><path d="M259.75 516.96L367.82 680.54" stroke="hsl(228.5, 77.2%, 51.5%)" stroke-width="1.5"></path><path d="M189.55 687.8L189.55 687.8" stroke="hsl(228.5, 77.2%, 51.5%)" stroke-width="1.5"></path><path d="M189.55 687.8L49.65 677.69" stroke="hsl(228.5, 77.2%, 51.5%)" stroke-width="1.5"></path><path d="M339.97 521.06L339.97 521.06" stroke="hsl(228.5, 77.2%, 51.5%)" stroke-width="1.5"></path><path d="M339.97 521.06L367.82 680.54" stroke="hsl(228.5, 77.2%, 51.5%)" stroke-width="1.5"></path><path d="M339.97 521.06L509.68 523.91" stroke="hsl(228.5, 77.2%, 51.5%)" stroke-width="1.5"></path><path d="M339.97 521.06L495.8 407.51" stroke="hsl(228.5, 77.2%, 51.5%)" stroke-width="1.5"></path><path d="M367.82 680.54L367.82 680.54" stroke="hsl(228.5, 77.2%, 51.5%)" stroke-width="1.5"></path><path d="M367.82 680.54L189.55 687.8" stroke="hsl(228.5, 77.2%, 51.5%)" stroke-width="1.5"></path><path d="M367.82 680.54L552.57 671.94" stroke="hsl(228.5, 77.2%, 51.5%)" stroke-width="1.5"></path><path d="M495.8 407.51L495.8 407.51" stroke="hsl(228.5, 77.2%, 51.5%)" stroke-width="1.5"></path><path d="M495.8 407.51L509.68 523.91" stroke="hsl(228.5, 77.2%, 51.5%)" stroke-width="1.5"></path><path d="M495.8 407.51L645.17 526.34" stroke="hsl(228.5, 77.2%, 51.5%)" stroke-width="1.5"></path><path d="M495.8 407.51L259.75 516.96" stroke="hsl(228.5, 77.2%, 51.5%)" stroke-width="1.5"></path><path d="M495.8 407.51L552.57 671.94" stroke="hsl(228.5, 77.2%, 51.5%)" stroke-width="1.5"></path><path d="M509.68 523.91L509.68 523.91" stroke="hsl(228.5, 77.2%, 51.5%)" stroke-width="1.5"></path><path d="M509.68 523.91L645.17 526.34" stroke="hsl(228.5, 77.2%, 51.5%)" stroke-width="1.5"></path><path d="M509.68 523.91L552.57 671.94" stroke="hsl(228.5, 77.2%, 51.5%)" stroke-width="1.5"></path><path d="M509.68 523.91L367.82 680.54" stroke="hsl(228.5, 77.2%, 51.5%)" stroke-width="1.5"></path><path d="M509.68 523.91L703.82 672.63" stroke="hsl(228.5, 77.2%, 51.5%)" stroke-width="1.5"></path><path d="M552.57 671.94L552.57 671.94" stroke="hsl(228.5, 77.2%, 51.5%)" stroke-width="1.5"></path><path d="M552.57 671.94L645.17 526.34" stroke="hsl(228.5, 77.2%, 51.5%)" stroke-width="1.5"></path><path d="M552.57 671.94L339.97 521.06" stroke="hsl(228.5, 77.2%, 51.5%)" stroke-width="1.5"></path><path d="M645.17 526.34L645.17 526.34" stroke="hsl(228.5, 77.2%, 51.5%)" stroke-width="1.5"></path><path d="M848.84 550.47L848.84 550.47" stroke="hsl(228.5, 77.2%, 51.5%)" stroke-width="1.5"></path><path d="M848.84 550.47L939.79 537.24" stroke="hsl(228.5, 77.2%, 51.5%)" stroke-width="1.5"></path><path d="M848.84 550.47L1001.6 682.63" stroke="hsl(228.5, 77.2%, 51.5%)" stroke-width="1.5"></path><path d="M848.84 550.47L645.17 526.34" stroke="hsl(228.5, 77.2%, 51.5%)" stroke-width="1.5"></path><path d="M981.5 380.84L981.5 380.84" stroke="hsl(228.5, 77.2%, 51.5%)" stroke-width="1.5"></path><path d="M981.5 380.84L1096.76 390.06" stroke="hsl(228.5, 77.2%, 51.5%)" stroke-width="1.5"></path><path d="M939.79 537.24L939.79 537.24" stroke="hsl(228.5, 77.2%, 51.5%)" stroke-width="1.5"></path><path d="M939.79 537.24L1001.6 682.63" stroke="hsl(228.5, 77.2%, 51.5%)" stroke-width="1.5"></path><path d="M1001.6 682.63L1001.6 682.63" stroke="hsl(228.5, 77.2%, 51.5%)" stroke-width="1.5"></path><path d="M1001.6 682.63L1143.42 698.52" stroke="hsl(228.5, 77.2%, 51.5%)" stroke-width="1.5"></path><path d="M1001.6 682.63L1137.01 554.95" stroke="hsl(228.5, 77.2%, 51.5%)" stroke-width="1.5"></path><path d="M1001.6 682.63L1268.72 691.91" stroke="hsl(228.5, 77.2%, 51.5%)" stroke-width="1.5"></path><path d="M1142.75 199.01L1142.75 199.01" stroke="hsl(228.5, 77.2%, 51.5%)" stroke-width="1.5"></path><path d="M1142.75 199.01L1271.73 199.83" stroke="hsl(228.5, 77.2%, 51.5%)" stroke-width="1.5"></path><path d="M1142.75 199.01L1241.53 367.68" stroke="hsl(228.5, 77.2%, 51.5%)" stroke-width="1.5"></path><path d="M1142.75 199.01L1096.76 390.06" stroke="hsl(228.5, 77.2%, 51.5%)" stroke-width="1.5"></path><path d="M1142.75 199.01L981.5 380.84" stroke="hsl(228.5, 77.2%, 51.5%)" stroke-width="1.5"></path><path d="M1096.76 390.06L1096.76 390.06" stroke="hsl(228.5, 77.2%, 51.5%)" stroke-width="1.5"></path><path d="M1096.76 390.06L1241.53 367.68" stroke="hsl(228.5, 77.2%, 51.5%)" stroke-width="1.5"></path><path d="M1096.76 390.06L1137.01 554.95" stroke="hsl(228.5, 77.2%, 51.5%)" stroke-width="1.5"></path><path d="M1137.01 554.95L1137.01 554.95" stroke="hsl(228.5, 77.2%, 51.5%)" stroke-width="1.5"></path><path d="M1137.01 554.95L1143.42 698.52" stroke="hsl(228.5, 77.2%, 51.5%)" stroke-width="1.5"></path><path d="M1143.42 698.52L1143.42 698.52" stroke="hsl(228.5, 77.2%, 51.5%)" stroke-width="1.5"></path><path d="M1143.42 698.52L1268.72 691.91" stroke="hsl(228.5, 77.2%, 51.5%)" stroke-width="1.5"></path><path d="M1143.42 698.52L939.79 537.24" stroke="hsl(228.5, 77.2%, 51.5%)" stroke-width="1.5"></path><path d="M1240.51 -93.1L1240.51 -93.1" stroke="hsl(228.5, 77.2%, 51.5%)" stroke-width="1.5"></path><path d="M1240.51 -93.1L1456.24 -109.97" stroke="hsl(228.5, 77.2%, 51.5%)" stroke-width="1.5"></path><path d="M1240.51 -93.1L1271.73 199.83" stroke="hsl(228.5, 77.2%, 51.5%)" stroke-width="1.5"></path><path d="M1240.51 -93.1L1142.75 199.01" stroke="hsl(228.5, 77.2%, 51.5%)" stroke-width="1.5"></path><path d="M1240.51 -93.1L1582.01 -88.69" stroke="hsl(228.5, 77.2%, 51.5%)" stroke-width="1.5"></path><path d="M1271.73 199.83L1271.73 199.83" stroke="hsl(228.5, 77.2%, 51.5%)" stroke-width="1.5"></path><path d="M1271.73 199.83L1241.53 367.68" stroke="hsl(228.5, 77.2%, 51.5%)" stroke-width="1.5"></path><path d="M1241.53 367.68L1241.53 367.68" stroke="hsl(228.5, 77.2%, 51.5%)" stroke-width="1.5"></path><path d="M1241.53 367.68L1421.15 345" stroke="hsl(228.5, 77.2%, 51.5%)" stroke-width="1.5"></path><path d="M1268.72 691.91L1268.72 691.91" stroke="hsl(228.5, 77.2%, 51.5%)" stroke-width="1.5"></path><path d="M1268.72 691.91L1434.41 658.77" stroke="hsl(228.5, 77.2%, 51.5%)" stroke-width="1.5"></path><path d="M1268.72 691.91L1137.01 554.95" stroke="hsl(228.5, 77.2%, 51.5%)" stroke-width="1.5"></path><path d="M1268.72 691.91L1404.71 500.54" stroke="hsl(228.5, 77.2%, 51.5%)" stroke-width="1.5"></path><path d="M1456.24 -109.97L1456.24 -109.97" stroke="hsl(228.5, 77.2%, 51.5%)" stroke-width="1.5"></path><path d="M1456.24 -109.97L1579.92 111.06" stroke="hsl(228.5, 77.2%, 51.5%)" stroke-width="1.5"></path><path d="M1449.84 243.73L1449.84 243.73" stroke="hsl(228.5, 77.2%, 51.5%)" stroke-width="1.5"></path><path d="M1449.84 243.73L1421.15 345" stroke="hsl(228.5, 77.2%, 51.5%)" stroke-width="1.5"></path><path d="M1449.84 243.73L1271.73 199.83" stroke="hsl(228.5, 77.2%, 51.5%)" stroke-width="1.5"></path><path d="M1449.84 243.73L1572.74 380.85" stroke="hsl(228.5, 77.2%, 51.5%)" stroke-width="1.5"></path><path d="M1421.15 345L1421.15 345" stroke="hsl(228.5, 77.2%, 51.5%)" stroke-width="1.5"></path><path d="M1421.15 345L1572.74 380.85" stroke="hsl(228.5, 77.2%, 51.5%)" stroke-width="1.5"></path><path d="M1421.15 345L1404.71 500.54" stroke="hsl(228.5, 77.2%, 51.5%)" stroke-width="1.5"></path><path d="M1421.15 345L1271.73 199.83" stroke="hsl(228.5, 77.2%, 51.5%)" stroke-width="1.5"></path><path d="M1421.15 345L1549.11 523.76" stroke="hsl(228.5, 77.2%, 51.5%)" stroke-width="1.5"></path><path d="M1404.71 500.54L1404.71 500.54" stroke="hsl(228.5, 77.2%, 51.5%)" stroke-width="1.5"></path><path d="M1434.41 658.77L1434.41 658.77" stroke="hsl(228.5, 77.2%, 51.5%)" stroke-width="1.5"></path><path d="M1434.41 658.77L1573.51 645.61" stroke="hsl(228.5, 77.2%, 51.5%)" stroke-width="1.5"></path><path d="M1434.41 658.77L1404.71 500.54" stroke="hsl(228.5, 77.2%, 51.5%)" stroke-width="1.5"></path><path d="M1579.92 111.06L1579.92 111.06" stroke="hsl(228.5, 77.2%, 51.5%)" stroke-width="1.5"></path><path d="M1579.92 111.06L1449.84 243.73" stroke="hsl(228.5, 77.2%, 51.5%)" stroke-width="1.5"></path><path d="M1572.74 380.85L1572.74 380.85" stroke="hsl(228.5, 77.2%, 51.5%)" stroke-width="1.5"></path><path d="M1572.74 380.85L1404.71 500.54" stroke="hsl(228.5, 77.2%, 51.5%)" stroke-width="1.5"></path><path d="M1572.74 380.85L1573.51 645.61" stroke="hsl(228.5, 77.2%, 51.5%)" stroke-width="1.5"></path><path d="M1572.74 380.85L1579.92 111.06" stroke="hsl(228.5, 77.2%, 51.5%)" stroke-width="1.5"></path><path d="M1573.51 645.61L1573.51 645.61" stroke="hsl(228.5, 77.2%, 51.5%)" stroke-width="1.5"></path><circle r="25" cx="49.65" cy="677.69" fill="url(&quot;#SvgjsRadialGradient1095&quot;)"></circle><circle r="25" cx="703.82" cy="672.63" fill="url(&quot;#SvgjsRadialGradient1095&quot;)"></circle><circle r="25" cx="856.46" cy="356.08" fill="url(&quot;#SvgjsRadialGradient1095&quot;)"></circle><circle r="25" cx="862.44" cy="656.84" fill="url(&quot;#SvgjsRadialGradient1095&quot;)"></circle><circle r="25" cx="1271.18" cy="554.09" fill="url(&quot;#SvgjsRadialGradient1095&quot;)"></circle><circle r="25" cx="1582.01" cy="-88.69" fill="url(&quot;#SvgjsRadialGradient1095&quot;)"></circle><circle r="25" cx="1549.11" cy="523.76" fill="url(&quot;#SvgjsRadialGradient1095&quot;)"></circle><circle r="5" cx="-46.47" cy="488.82" fill="#8b9ad9"></circle><circle r="5" cx="-39.26" cy="690.77" fill="#8b9ad9"></circle><circle r="5" cx="45.63" cy="540.06" fill="#8b9ad9"></circle><circle r="5" cx="259.75" cy="516.96" fill="#8b9ad9"></circle><circle r="5" cx="189.55" cy="687.8" fill="#8b9ad9"></circle><circle r="5" cx="339.97" cy="521.06" fill="#8b9ad9"></circle><circle r="5" cx="367.82" cy="680.54" fill="#8b9ad9"></circle><circle r="5" cx="495.8" cy="407.51" fill="#8b9ad9"></circle><circle r="5" cx="509.68" cy="523.91" fill="#8b9ad9"></circle><circle r="5" cx="552.57" cy="671.94" fill="#8b9ad9"></circle><circle r="5" cx="645.17" cy="526.34" fill="#8b9ad9"></circle><circle r="5" cx="848.84" cy="550.47" fill="#8b9ad9"></circle><circle r="5" cx="981.5" cy="380.84" fill="#8b9ad9"></circle><circle r="5" cx="939.79" cy="537.24" fill="#8b9ad9"></circle><circle r="5" cx="1001.6" cy="682.63" fill="#8b9ad9"></circle><circle r="5" cx="1142.75" cy="199.01" fill="#8b9ad9"></circle><circle r="5" cx="1096.76" cy="390.06" fill="#8b9ad9"></circle><circle r="5" cx="1137.01" cy="554.95" fill="#8b9ad9"></circle><circle r="5" cx="1143.42" cy="698.52" fill="#8b9ad9"></circle><circle r="5" cx="1240.51" cy="-93.1" fill="#8b9ad9"></circle><circle r="5" cx="1271.73" cy="199.83" fill="#8b9ad9"></circle><circle r="5" cx="1241.53" cy="367.68" fill="#8b9ad9"></circle><circle r="5" cx="1268.72" cy="691.91" fill="#8b9ad9"></circle><circle r="5" cx="1456.24" cy="-109.97" fill="#8b9ad9"></circle><circle r="5" cx="1449.84" cy="243.73" fill="#8b9ad9"></circle><circle r="5" cx="1421.15" cy="345" fill="#8b9ad9"></circle><circle r="5" cx="1404.71" cy="500.54" fill="#8b9ad9"></circle><circle r="5" cx="1434.41" cy="658.77" fill="#8b9ad9"></circle><circle r="5" cx="1579.92" cy="111.06" fill="#8b9ad9"></circle><circle r="5" cx="1572.74" cy="380.85" fill="#8b9ad9"></circle><circle r="5" cx="1573.51" cy="645.61" fill="#8b9ad9"></circle></g><defs><mask id="SvgjsMask1094"><rect width="1440" height="560" fill="#ffffff"></rect></mask><radialGradient id="SvgjsRadialGradient1095"><stop stop-color="#ffffff" offset="0.1"></stop><stop stop-color="#1735b3" offset="0.2"></stop><stop stop-color="rgba(23, 53, 179, 0)" offset="1"></stop></radialGradient></defs></svg>